<mxfile host="app.diagrams.net" agent="Mozilla/5.0 (Windows NT 10.0; Win64; x64) AppleWebKit/537.36 (KHTML, like Gecko) Chrome/129.0.0.0 Safari/537.36" version="24.7.17">
  <diagram id="C5RBs43oDa-KdzZeNtuy" name="資料庫關聯表">
    <mxGraphModel grid="1" page="1" gridSize="10" guides="1" tooltips="1" connect="1" arrows="1" fold="1" pageScale="1" pageWidth="827" pageHeight="1169" math="0" shadow="0">
      <root>
        <mxCell id="WIyWlLk6GJQsqaUBKTNV-0" />
        <mxCell id="WIyWlLk6GJQsqaUBKTNV-1" parent="WIyWlLk6GJQsqaUBKTNV-0" />
        <mxCell id="Gdn8Utj69mYLryFX6eAu-216" value="" style="group" connectable="0" vertex="1" parent="WIyWlLk6GJQsqaUBKTNV-1">
          <mxGeometry x="1681" y="960" width="322" height="570" as="geometry" />
        </mxCell>
        <mxCell id="Gdn8Utj69mYLryFX6eAu-129" value="" style="shape=internalStorage;whiteSpace=wrap;html=1;backgroundOutline=1;dx=37;dy=60;movable=1;resizable=1;rotatable=1;deletable=1;editable=1;locked=0;connectable=1;shadow=0;" vertex="1" parent="Gdn8Utj69mYLryFX6eAu-216">
          <mxGeometry x="2" y="30" width="320" height="540" as="geometry" />
        </mxCell>
        <mxCell id="Gdn8Utj69mYLryFX6eAu-130" value="&lt;b&gt;&lt;u&gt;store_id&lt;/u&gt;&lt;/b&gt;" style="text;strokeColor=none;fillColor=none;align=left;verticalAlign=top;spacingLeft=4;spacingRight=4;overflow=hidden;rotatable=0;points=[[0,0.5],[1,0.5]];portConstraint=eastwest;whiteSpace=wrap;html=1;" vertex="1" parent="Gdn8Utj69mYLryFX6eAu-216">
          <mxGeometry x="42" y="30" width="140" height="30" as="geometry" />
        </mxCell>
        <mxCell id="Gdn8Utj69mYLryFX6eAu-131" value="data_id" style="text;strokeColor=none;fillColor=none;align=left;verticalAlign=top;spacingLeft=4;spacingRight=4;overflow=hidden;rotatable=0;points=[[0,0.5],[1,0.5]];portConstraint=eastwest;whiteSpace=wrap;html=1;" vertex="1" parent="Gdn8Utj69mYLryFX6eAu-216">
          <mxGeometry x="40" y="91" width="160" height="30" as="geometry" />
        </mxCell>
        <mxCell id="Gdn8Utj69mYLryFX6eAu-132" value="PK1" style="text;html=1;align=center;verticalAlign=middle;resizable=0;points=[];autosize=1;strokeColor=none;fillColor=none;" vertex="1" parent="Gdn8Utj69mYLryFX6eAu-216">
          <mxGeometry x="-5" y="30" width="50" height="30" as="geometry" />
        </mxCell>
        <mxCell id="Gdn8Utj69mYLryFX6eAu-133" value="" style="endArrow=none;html=1;rounded=0;entryX=0.643;entryY=0.008;entryDx=0;entryDy=0;entryPerimeter=0;exitX=0.008;exitY=1.022;exitDx=0;exitDy=0;exitPerimeter=0;" edge="1" parent="Gdn8Utj69mYLryFX6eAu-216" source="Gdn8Utj69mYLryFX6eAu-159">
          <mxGeometry width="50" height="50" relative="1" as="geometry">
            <mxPoint x="202" y="250" as="sourcePoint" />
            <mxPoint x="202" y="30" as="targetPoint" />
          </mxGeometry>
        </mxCell>
        <mxCell id="Gdn8Utj69mYLryFX6eAu-134" value="&lt;b&gt;&lt;u&gt;INT(11)&lt;/u&gt;&lt;/b&gt;" style="text;strokeColor=none;fillColor=none;align=left;verticalAlign=top;spacingLeft=4;spacingRight=4;overflow=hidden;rotatable=0;points=[[0,0.5],[1,0.5]];portConstraint=eastwest;whiteSpace=wrap;html=1;" vertex="1" parent="Gdn8Utj69mYLryFX6eAu-216">
          <mxGeometry x="202" y="30" width="120" height="30" as="geometry" />
        </mxCell>
        <mxCell id="Gdn8Utj69mYLryFX6eAu-135" value="" style="swimlane;startSize=0;" vertex="1" parent="Gdn8Utj69mYLryFX6eAu-216">
          <mxGeometry x="2" width="320" height="30" as="geometry" />
        </mxCell>
        <mxCell id="Gdn8Utj69mYLryFX6eAu-136" value="&lt;b&gt;Comments&lt;/b&gt;" style="text;html=1;align=center;verticalAlign=middle;resizable=0;points=[];autosize=1;strokeColor=none;fillColor=none;" vertex="1" parent="Gdn8Utj69mYLryFX6eAu-135">
          <mxGeometry x="115" width="90" height="30" as="geometry" />
        </mxCell>
        <mxCell id="Gdn8Utj69mYLryFX6eAu-137" value="&lt;u&gt;&lt;b&gt;id&lt;/b&gt;&lt;/u&gt;" style="text;strokeColor=none;fillColor=none;align=left;verticalAlign=top;spacingLeft=4;spacingRight=4;overflow=hidden;rotatable=0;points=[[0,0.5],[1,0.5]];portConstraint=eastwest;whiteSpace=wrap;html=1;" vertex="1" parent="Gdn8Utj69mYLryFX6eAu-216">
          <mxGeometry x="42" y="60" width="140" height="30" as="geometry" />
        </mxCell>
        <mxCell id="Gdn8Utj69mYLryFX6eAu-138" value="&lt;u&gt;&lt;b&gt;INT(11)&lt;/b&gt;&lt;/u&gt;" style="text;strokeColor=none;fillColor=none;align=left;verticalAlign=top;spacingLeft=4;spacingRight=4;overflow=hidden;rotatable=0;points=[[0,0.5],[1,0.5]];portConstraint=eastwest;whiteSpace=wrap;html=1;" vertex="1" parent="Gdn8Utj69mYLryFX6eAu-216">
          <mxGeometry x="202" y="60" width="120" height="30" as="geometry" />
        </mxCell>
        <mxCell id="Gdn8Utj69mYLryFX6eAu-139" value="contents" style="text;strokeColor=none;fillColor=none;align=left;verticalAlign=top;spacingLeft=4;spacingRight=4;overflow=hidden;rotatable=0;points=[[0,0.5],[1,0.5]];portConstraint=eastwest;whiteSpace=wrap;html=1;" vertex="1" parent="Gdn8Utj69mYLryFX6eAu-216">
          <mxGeometry x="40" y="121" width="160" height="30" as="geometry" />
        </mxCell>
        <mxCell id="Gdn8Utj69mYLryFX6eAu-140" value="VARCHAR(50)" style="text;strokeColor=none;fillColor=none;align=left;verticalAlign=top;spacingLeft=4;spacingRight=4;overflow=hidden;rotatable=0;points=[[0,0.5],[1,0.5]];portConstraint=eastwest;whiteSpace=wrap;html=1;" vertex="1" parent="Gdn8Utj69mYLryFX6eAu-216">
          <mxGeometry x="202" y="91" width="120" height="30" as="geometry" />
        </mxCell>
        <mxCell id="Gdn8Utj69mYLryFX6eAu-141" value="TEXT" style="text;strokeColor=none;fillColor=none;align=left;verticalAlign=top;spacingLeft=4;spacingRight=4;overflow=hidden;rotatable=0;points=[[0,0.5],[1,0.5]];portConstraint=eastwest;whiteSpace=wrap;html=1;" vertex="1" parent="Gdn8Utj69mYLryFX6eAu-216">
          <mxGeometry x="202" y="121" width="120" height="30" as="geometry" />
        </mxCell>
        <mxCell id="Gdn8Utj69mYLryFX6eAu-142" value="time" style="text;strokeColor=none;fillColor=none;align=left;verticalAlign=top;spacingLeft=4;spacingRight=4;overflow=hidden;rotatable=0;points=[[0,0.5],[1,0.5]];portConstraint=eastwest;whiteSpace=wrap;html=1;" vertex="1" parent="Gdn8Utj69mYLryFX6eAu-216">
          <mxGeometry x="42" y="151" width="160" height="30" as="geometry" />
        </mxCell>
        <mxCell id="Gdn8Utj69mYLryFX6eAu-143" value="rating" style="text;strokeColor=none;fillColor=none;align=left;verticalAlign=top;spacingLeft=4;spacingRight=4;overflow=hidden;rotatable=0;points=[[0,0.5],[1,0.5]];portConstraint=eastwest;whiteSpace=wrap;html=1;" vertex="1" parent="Gdn8Utj69mYLryFX6eAu-216">
          <mxGeometry x="42" y="181" width="160" height="30" as="geometry" />
        </mxCell>
        <mxCell id="Gdn8Utj69mYLryFX6eAu-144" value="has_image" style="text;strokeColor=none;fillColor=none;align=left;verticalAlign=top;spacingLeft=4;spacingRight=4;overflow=hidden;rotatable=0;points=[[0,0.5],[1,0.5]];portConstraint=eastwest;whiteSpace=wrap;html=1;" vertex="1" parent="Gdn8Utj69mYLryFX6eAu-216">
          <mxGeometry x="42" y="211" width="160" height="30" as="geometry" />
        </mxCell>
        <mxCell id="Gdn8Utj69mYLryFX6eAu-145" value="food_rating" style="text;strokeColor=none;fillColor=none;align=left;verticalAlign=top;spacingLeft=4;spacingRight=4;overflow=hidden;rotatable=0;points=[[0,0.5],[1,0.5]];portConstraint=eastwest;whiteSpace=wrap;html=1;" vertex="1" parent="Gdn8Utj69mYLryFX6eAu-216">
          <mxGeometry x="42" y="241" width="160" height="30" as="geometry" />
        </mxCell>
        <mxCell id="Gdn8Utj69mYLryFX6eAu-146" value="service_rating" style="text;strokeColor=none;fillColor=none;align=left;verticalAlign=top;spacingLeft=4;spacingRight=4;overflow=hidden;rotatable=0;points=[[0,0.5],[1,0.5]];portConstraint=eastwest;whiteSpace=wrap;html=1;" vertex="1" parent="Gdn8Utj69mYLryFX6eAu-216">
          <mxGeometry x="42" y="271" width="160" height="30" as="geometry" />
        </mxCell>
        <mxCell id="Gdn8Utj69mYLryFX6eAu-147" value="atmosphere_rating" style="text;strokeColor=none;fillColor=none;align=left;verticalAlign=top;spacingLeft=4;spacingRight=4;overflow=hidden;rotatable=0;points=[[0,0.5],[1,0.5]];portConstraint=eastwest;whiteSpace=wrap;html=1;" vertex="1" parent="Gdn8Utj69mYLryFX6eAu-216">
          <mxGeometry x="42" y="301" width="160" height="30" as="geometry" />
        </mxCell>
        <mxCell id="Gdn8Utj69mYLryFX6eAu-148" value="contributor_level" style="text;strokeColor=none;fillColor=none;align=left;verticalAlign=top;spacingLeft=4;spacingRight=4;overflow=hidden;rotatable=0;points=[[0,0.5],[1,0.5]];portConstraint=eastwest;whiteSpace=wrap;html=1;" vertex="1" parent="Gdn8Utj69mYLryFX6eAu-216">
          <mxGeometry x="42" y="331" width="160" height="30" as="geometry" />
        </mxCell>
        <mxCell id="Gdn8Utj69mYLryFX6eAu-149" value="environment_state" style="text;strokeColor=none;fillColor=none;align=left;verticalAlign=top;spacingLeft=4;spacingRight=4;overflow=hidden;rotatable=0;points=[[0,0.5],[1,0.5]];portConstraint=eastwest;whiteSpace=wrap;html=1;" vertex="1" parent="Gdn8Utj69mYLryFX6eAu-216">
          <mxGeometry x="42" y="361" width="160" height="30" as="geometry" />
        </mxCell>
        <mxCell id="Gdn8Utj69mYLryFX6eAu-150" value="price_state" style="text;strokeColor=none;fillColor=none;align=left;verticalAlign=top;spacingLeft=4;spacingRight=4;overflow=hidden;rotatable=0;points=[[0,0.5],[1,0.5]];portConstraint=eastwest;whiteSpace=wrap;html=1;" vertex="1" parent="Gdn8Utj69mYLryFX6eAu-216">
          <mxGeometry x="42" y="391" width="160" height="30" as="geometry" />
        </mxCell>
        <mxCell id="Gdn8Utj69mYLryFX6eAu-151" value="VARCHAR(20)" style="text;strokeColor=none;fillColor=none;align=left;verticalAlign=top;spacingLeft=4;spacingRight=4;overflow=hidden;rotatable=0;points=[[0,0.5],[1,0.5]];portConstraint=eastwest;whiteSpace=wrap;html=1;" vertex="1" parent="Gdn8Utj69mYLryFX6eAu-216">
          <mxGeometry x="202" y="151" width="120" height="30" as="geometry" />
        </mxCell>
        <mxCell id="Gdn8Utj69mYLryFX6eAu-152" value="INT(11)" style="text;strokeColor=none;fillColor=none;align=left;verticalAlign=top;spacingLeft=4;spacingRight=4;overflow=hidden;rotatable=0;points=[[0,0.5],[1,0.5]];portConstraint=eastwest;whiteSpace=wrap;html=1;" vertex="1" parent="Gdn8Utj69mYLryFX6eAu-216">
          <mxGeometry x="202" y="181" width="120" height="30" as="geometry" />
        </mxCell>
        <mxCell id="Gdn8Utj69mYLryFX6eAu-153" value="TINYINT(4)" style="text;strokeColor=none;fillColor=none;align=left;verticalAlign=top;spacingLeft=4;spacingRight=4;overflow=hidden;rotatable=0;points=[[0,0.5],[1,0.5]];portConstraint=eastwest;whiteSpace=wrap;html=1;" vertex="1" parent="Gdn8Utj69mYLryFX6eAu-216">
          <mxGeometry x="202" y="211" width="120" height="30" as="geometry" />
        </mxCell>
        <mxCell id="Gdn8Utj69mYLryFX6eAu-154" value="INT(11)" style="text;strokeColor=none;fillColor=none;align=left;verticalAlign=top;spacingLeft=4;spacingRight=4;overflow=hidden;rotatable=0;points=[[0,0.5],[1,0.5]];portConstraint=eastwest;whiteSpace=wrap;html=1;" vertex="1" parent="Gdn8Utj69mYLryFX6eAu-216">
          <mxGeometry x="202" y="241" width="120" height="30" as="geometry" />
        </mxCell>
        <mxCell id="Gdn8Utj69mYLryFX6eAu-155" value="INT(11)" style="text;strokeColor=none;fillColor=none;align=left;verticalAlign=top;spacingLeft=4;spacingRight=4;overflow=hidden;rotatable=0;points=[[0,0.5],[1,0.5]];portConstraint=eastwest;whiteSpace=wrap;html=1;" vertex="1" parent="Gdn8Utj69mYLryFX6eAu-216">
          <mxGeometry x="202" y="270" width="120" height="30" as="geometry" />
        </mxCell>
        <mxCell id="Gdn8Utj69mYLryFX6eAu-156" value="INT(11)" style="text;strokeColor=none;fillColor=none;align=left;verticalAlign=top;spacingLeft=4;spacingRight=4;overflow=hidden;rotatable=0;points=[[0,0.5],[1,0.5]];portConstraint=eastwest;whiteSpace=wrap;html=1;" vertex="1" parent="Gdn8Utj69mYLryFX6eAu-216">
          <mxGeometry x="202" y="300" width="120" height="30" as="geometry" />
        </mxCell>
        <mxCell id="Gdn8Utj69mYLryFX6eAu-157" value="INT(11)" style="text;strokeColor=none;fillColor=none;align=left;verticalAlign=top;spacingLeft=4;spacingRight=4;overflow=hidden;rotatable=0;points=[[0,0.5],[1,0.5]];portConstraint=eastwest;whiteSpace=wrap;html=1;" vertex="1" parent="Gdn8Utj69mYLryFX6eAu-216">
          <mxGeometry x="202" y="331" width="120" height="30" as="geometry" />
        </mxCell>
        <mxCell id="Gdn8Utj69mYLryFX6eAu-158" value="VARCHAR(10)" style="text;strokeColor=none;fillColor=none;align=left;verticalAlign=top;spacingLeft=4;spacingRight=4;overflow=hidden;rotatable=0;points=[[0,0.5],[1,0.5]];portConstraint=eastwest;whiteSpace=wrap;html=1;" vertex="1" parent="Gdn8Utj69mYLryFX6eAu-216">
          <mxGeometry x="202" y="361" width="120" height="30" as="geometry" />
        </mxCell>
        <mxCell id="Gdn8Utj69mYLryFX6eAu-159" value="TINYINT(4)" style="text;strokeColor=none;fillColor=none;align=left;verticalAlign=top;spacingLeft=4;spacingRight=4;overflow=hidden;rotatable=0;points=[[0,0.5],[1,0.5]];portConstraint=eastwest;whiteSpace=wrap;html=1;" vertex="1" parent="Gdn8Utj69mYLryFX6eAu-216">
          <mxGeometry x="202" y="540" width="120" height="30" as="geometry" />
        </mxCell>
        <mxCell id="Gdn8Utj69mYLryFX6eAu-160" value="FK" style="text;html=1;align=center;verticalAlign=middle;resizable=0;points=[];autosize=1;strokeColor=none;fillColor=none;" vertex="1" parent="Gdn8Utj69mYLryFX6eAu-216">
          <mxGeometry y="151" width="40" height="30" as="geometry" />
        </mxCell>
        <mxCell id="Gdn8Utj69mYLryFX6eAu-163" value="product_state" style="text;strokeColor=none;fillColor=none;align=left;verticalAlign=top;spacingLeft=4;spacingRight=4;overflow=hidden;rotatable=0;points=[[0,0.5],[1,0.5]];portConstraint=eastwest;whiteSpace=wrap;html=1;" vertex="1" parent="Gdn8Utj69mYLryFX6eAu-216">
          <mxGeometry x="42" y="420" width="160" height="30" as="geometry" />
        </mxCell>
        <mxCell id="Gdn8Utj69mYLryFX6eAu-164" value="service_state" style="text;strokeColor=none;fillColor=none;align=left;verticalAlign=top;spacingLeft=4;spacingRight=4;overflow=hidden;rotatable=0;points=[[0,0.5],[1,0.5]];portConstraint=eastwest;whiteSpace=wrap;html=1;" vertex="1" parent="Gdn8Utj69mYLryFX6eAu-216">
          <mxGeometry x="42" y="450" width="160" height="30" as="geometry" />
        </mxCell>
        <mxCell id="Gdn8Utj69mYLryFX6eAu-165" value="sample_of_most_relevant" style="text;strokeColor=none;fillColor=none;align=left;verticalAlign=top;spacingLeft=4;spacingRight=4;overflow=hidden;rotatable=0;points=[[0,0.5],[1,0.5]];portConstraint=eastwest;whiteSpace=wrap;html=1;" vertex="1" parent="Gdn8Utj69mYLryFX6eAu-216">
          <mxGeometry x="42" y="480" width="160" height="30" as="geometry" />
        </mxCell>
        <mxCell id="Gdn8Utj69mYLryFX6eAu-167" value="sample_of_highest_rating" style="text;strokeColor=none;fillColor=none;align=left;verticalAlign=top;spacingLeft=4;spacingRight=4;overflow=hidden;rotatable=0;points=[[0,0.5],[1,0.5]];portConstraint=eastwest;whiteSpace=wrap;html=1;" vertex="1" parent="Gdn8Utj69mYLryFX6eAu-216">
          <mxGeometry x="42" y="510" width="160" height="30" as="geometry" />
        </mxCell>
        <mxCell id="Gdn8Utj69mYLryFX6eAu-168" value="sample_of_lowest_rating" style="text;strokeColor=none;fillColor=none;align=left;verticalAlign=top;spacingLeft=4;spacingRight=4;overflow=hidden;rotatable=0;points=[[0,0.5],[1,0.5]];portConstraint=eastwest;whiteSpace=wrap;html=1;" vertex="1" parent="Gdn8Utj69mYLryFX6eAu-216">
          <mxGeometry x="42" y="540" width="160" height="30" as="geometry" />
        </mxCell>
        <mxCell id="Gdn8Utj69mYLryFX6eAu-169" value="VARCHAR(10)" style="text;strokeColor=none;fillColor=none;align=left;verticalAlign=top;spacingLeft=4;spacingRight=4;overflow=hidden;rotatable=0;points=[[0,0.5],[1,0.5]];portConstraint=eastwest;whiteSpace=wrap;html=1;" vertex="1" parent="Gdn8Utj69mYLryFX6eAu-216">
          <mxGeometry x="202" y="391" width="120" height="30" as="geometry" />
        </mxCell>
        <mxCell id="Gdn8Utj69mYLryFX6eAu-170" value="VARCHAR(10)" style="text;strokeColor=none;fillColor=none;align=left;verticalAlign=top;spacingLeft=4;spacingRight=4;overflow=hidden;rotatable=0;points=[[0,0.5],[1,0.5]];portConstraint=eastwest;whiteSpace=wrap;html=1;" vertex="1" parent="Gdn8Utj69mYLryFX6eAu-216">
          <mxGeometry x="202" y="420" width="120" height="30" as="geometry" />
        </mxCell>
        <mxCell id="Gdn8Utj69mYLryFX6eAu-171" value="VARCHAR(10)" style="text;strokeColor=none;fillColor=none;align=left;verticalAlign=top;spacingLeft=4;spacingRight=4;overflow=hidden;rotatable=0;points=[[0,0.5],[1,0.5]];portConstraint=eastwest;whiteSpace=wrap;html=1;" vertex="1" parent="Gdn8Utj69mYLryFX6eAu-216">
          <mxGeometry x="202" y="450" width="120" height="30" as="geometry" />
        </mxCell>
        <mxCell id="Gdn8Utj69mYLryFX6eAu-172" value="TINYINT(4)" style="text;strokeColor=none;fillColor=none;align=left;verticalAlign=top;spacingLeft=4;spacingRight=4;overflow=hidden;rotatable=0;points=[[0,0.5],[1,0.5]];portConstraint=eastwest;whiteSpace=wrap;html=1;" vertex="1" parent="Gdn8Utj69mYLryFX6eAu-216">
          <mxGeometry x="202" y="480" width="120" height="30" as="geometry" />
        </mxCell>
        <mxCell id="Gdn8Utj69mYLryFX6eAu-173" value="TINYINT(4)" style="text;strokeColor=none;fillColor=none;align=left;verticalAlign=top;spacingLeft=4;spacingRight=4;overflow=hidden;rotatable=0;points=[[0,0.5],[1,0.5]];portConstraint=eastwest;whiteSpace=wrap;html=1;" vertex="1" parent="Gdn8Utj69mYLryFX6eAu-216">
          <mxGeometry x="202" y="510" width="120" height="30" as="geometry" />
        </mxCell>
        <mxCell id="Gdn8Utj69mYLryFX6eAu-692" value="PK2" style="text;html=1;align=center;verticalAlign=middle;resizable=0;points=[];autosize=1;strokeColor=none;fillColor=none;" vertex="1" parent="Gdn8Utj69mYLryFX6eAu-216">
          <mxGeometry x="-5" y="61" width="50" height="30" as="geometry" />
        </mxCell>
        <mxCell id="Gdn8Utj69mYLryFX6eAu-294" value="" style="group" connectable="0" vertex="1" parent="WIyWlLk6GJQsqaUBKTNV-1">
          <mxGeometry x="1248" y="470" width="322" height="270" as="geometry" />
        </mxCell>
        <mxCell id="Gdn8Utj69mYLryFX6eAu-249" value="" style="shape=internalStorage;whiteSpace=wrap;html=1;backgroundOutline=1;dx=38;dy=30;movable=1;resizable=1;rotatable=1;deletable=1;editable=1;locked=0;connectable=1;shadow=0;" vertex="1" parent="Gdn8Utj69mYLryFX6eAu-294">
          <mxGeometry x="2" y="30" width="320" height="240" as="geometry" />
        </mxCell>
        <mxCell id="Gdn8Utj69mYLryFX6eAu-250" value="&lt;b&gt;&lt;u&gt;store_id&lt;/u&gt;&lt;/b&gt;" style="text;strokeColor=none;fillColor=none;align=left;verticalAlign=top;spacingLeft=4;spacingRight=4;overflow=hidden;rotatable=0;points=[[0,0.5],[1,0.5]];portConstraint=eastwest;whiteSpace=wrap;html=1;" vertex="1" parent="Gdn8Utj69mYLryFX6eAu-294">
          <mxGeometry x="38" y="30" width="140" height="30" as="geometry" />
        </mxCell>
        <mxCell id="Gdn8Utj69mYLryFX6eAu-251" value="latitude" style="text;strokeColor=none;fillColor=none;align=left;verticalAlign=top;spacingLeft=4;spacingRight=4;overflow=hidden;rotatable=0;points=[[0,0.5],[1,0.5]];portConstraint=eastwest;whiteSpace=wrap;html=1;" vertex="1" parent="Gdn8Utj69mYLryFX6eAu-294">
          <mxGeometry x="38" y="89.33000000000015" width="160" height="30" as="geometry" />
        </mxCell>
        <mxCell id="Gdn8Utj69mYLryFX6eAu-252" value="PK" style="text;html=1;align=center;verticalAlign=middle;resizable=0;points=[];autosize=1;strokeColor=none;fillColor=none;" vertex="1" parent="Gdn8Utj69mYLryFX6eAu-294">
          <mxGeometry y="30" width="40" height="30" as="geometry" />
        </mxCell>
        <mxCell id="Gdn8Utj69mYLryFX6eAu-254" value="&lt;u&gt;&lt;b&gt;INT(11)&lt;/b&gt;&lt;/u&gt;" style="text;strokeColor=none;fillColor=none;align=left;verticalAlign=top;spacingLeft=4;spacingRight=4;overflow=hidden;rotatable=0;points=[[0,0.5],[1,0.5]];portConstraint=eastwest;whiteSpace=wrap;html=1;" vertex="1" parent="Gdn8Utj69mYLryFX6eAu-294">
          <mxGeometry x="202" y="30" width="120" height="30" as="geometry" />
        </mxCell>
        <mxCell id="Gdn8Utj69mYLryFX6eAu-255" value="" style="swimlane;startSize=0;" vertex="1" parent="Gdn8Utj69mYLryFX6eAu-294">
          <mxGeometry x="2" width="320" height="30" as="geometry" />
        </mxCell>
        <mxCell id="Gdn8Utj69mYLryFX6eAu-256" value="&lt;b&gt;locations&lt;/b&gt;" style="text;html=1;align=center;verticalAlign=middle;resizable=0;points=[];autosize=1;strokeColor=none;fillColor=none;" vertex="1" parent="Gdn8Utj69mYLryFX6eAu-255">
          <mxGeometry x="110" width="80" height="30" as="geometry" />
        </mxCell>
        <mxCell id="Gdn8Utj69mYLryFX6eAu-257" value="longitude" style="text;strokeColor=none;fillColor=none;align=left;verticalAlign=top;spacingLeft=4;spacingRight=4;overflow=hidden;rotatable=0;points=[[0,0.5],[1,0.5]];portConstraint=eastwest;whiteSpace=wrap;html=1;" vertex="1" parent="Gdn8Utj69mYLryFX6eAu-294">
          <mxGeometry x="38" y="60.000000000000114" width="140" height="30" as="geometry" />
        </mxCell>
        <mxCell id="Gdn8Utj69mYLryFX6eAu-258" value="DECIMAL(10,7)" style="text;strokeColor=none;fillColor=none;align=left;verticalAlign=top;spacingLeft=4;spacingRight=4;overflow=hidden;rotatable=0;points=[[0,0.5],[1,0.5]];portConstraint=eastwest;whiteSpace=wrap;html=1;" vertex="1" parent="Gdn8Utj69mYLryFX6eAu-294">
          <mxGeometry x="202" y="60.000000000000114" width="120" height="30" as="geometry" />
        </mxCell>
        <mxCell id="Gdn8Utj69mYLryFX6eAu-259" value="DECIMAL(10,7)" style="text;strokeColor=none;fillColor=none;align=left;verticalAlign=top;spacingLeft=4;spacingRight=4;overflow=hidden;rotatable=0;points=[[0,0.5],[1,0.5]];portConstraint=eastwest;whiteSpace=wrap;html=1;" vertex="1" parent="Gdn8Utj69mYLryFX6eAu-294">
          <mxGeometry x="202" y="91.00000000000011" width="120" height="30" as="geometry" />
        </mxCell>
        <mxCell id="Gdn8Utj69mYLryFX6eAu-261" value="postal_code" style="text;strokeColor=none;fillColor=none;align=left;verticalAlign=top;spacingLeft=4;spacingRight=4;overflow=hidden;rotatable=0;points=[[0,0.5],[1,0.5]];portConstraint=eastwest;whiteSpace=wrap;html=1;" vertex="1" parent="Gdn8Utj69mYLryFX6eAu-294">
          <mxGeometry x="38" y="119.33000000000015" width="160" height="30" as="geometry" />
        </mxCell>
        <mxCell id="Gdn8Utj69mYLryFX6eAu-262" value="VARCHAR(6)" style="text;strokeColor=none;fillColor=none;align=left;verticalAlign=top;spacingLeft=4;spacingRight=4;overflow=hidden;rotatable=0;points=[[0,0.5],[1,0.5]];portConstraint=eastwest;whiteSpace=wrap;html=1;" vertex="1" parent="Gdn8Utj69mYLryFX6eAu-294">
          <mxGeometry x="202" y="119.33000000000015" width="120" height="30" as="geometry" />
        </mxCell>
        <mxCell id="Gdn8Utj69mYLryFX6eAu-263" value="city" style="text;strokeColor=none;fillColor=none;align=left;verticalAlign=top;spacingLeft=4;spacingRight=4;overflow=hidden;rotatable=0;points=[[0,0.5],[1,0.5]];portConstraint=eastwest;whiteSpace=wrap;html=1;" vertex="1" parent="Gdn8Utj69mYLryFX6eAu-294">
          <mxGeometry x="38" y="149.33000000000015" width="160" height="30" as="geometry" />
        </mxCell>
        <mxCell id="Gdn8Utj69mYLryFX6eAu-264" value="VARCHAR(3)" style="text;strokeColor=none;fillColor=none;align=left;verticalAlign=top;spacingLeft=4;spacingRight=4;overflow=hidden;rotatable=0;points=[[0,0.5],[1,0.5]];portConstraint=eastwest;whiteSpace=wrap;html=1;" vertex="1" parent="Gdn8Utj69mYLryFX6eAu-294">
          <mxGeometry x="202" y="149.33000000000015" width="120" height="30" as="geometry" />
        </mxCell>
        <mxCell id="Gdn8Utj69mYLryFX6eAu-265" value="dist" style="text;strokeColor=none;fillColor=none;align=left;verticalAlign=top;spacingLeft=4;spacingRight=4;overflow=hidden;rotatable=0;points=[[0,0.5],[1,0.5]];portConstraint=eastwest;whiteSpace=wrap;html=1;" vertex="1" parent="Gdn8Utj69mYLryFX6eAu-294">
          <mxGeometry x="38" y="179.33000000000015" width="160" height="30" as="geometry" />
        </mxCell>
        <mxCell id="Gdn8Utj69mYLryFX6eAu-266" value="VARCHAR(3)" style="text;strokeColor=none;fillColor=none;align=left;verticalAlign=top;spacingLeft=4;spacingRight=4;overflow=hidden;rotatable=0;points=[[0,0.5],[1,0.5]];portConstraint=eastwest;whiteSpace=wrap;html=1;" vertex="1" parent="Gdn8Utj69mYLryFX6eAu-294">
          <mxGeometry x="202" y="179.33000000000015" width="120" height="30" as="geometry" />
        </mxCell>
        <mxCell id="Gdn8Utj69mYLryFX6eAu-269" value="vil" style="text;strokeColor=none;fillColor=none;align=left;verticalAlign=top;spacingLeft=4;spacingRight=4;overflow=hidden;rotatable=0;points=[[0,0.5],[1,0.5]];portConstraint=eastwest;whiteSpace=wrap;html=1;" vertex="1" parent="Gdn8Utj69mYLryFX6eAu-294">
          <mxGeometry x="38" y="209.33000000000015" width="160" height="30" as="geometry" />
        </mxCell>
        <mxCell id="Gdn8Utj69mYLryFX6eAu-270" value="details" style="text;strokeColor=none;fillColor=none;align=left;verticalAlign=top;spacingLeft=4;spacingRight=4;overflow=hidden;rotatable=0;points=[[0,0.5],[1,0.5]];portConstraint=eastwest;whiteSpace=wrap;html=1;" vertex="1" parent="Gdn8Utj69mYLryFX6eAu-294">
          <mxGeometry x="38" y="239.33000000000015" width="160" height="30" as="geometry" />
        </mxCell>
        <mxCell id="Gdn8Utj69mYLryFX6eAu-271" value="VARCHAR(3)" style="text;strokeColor=none;fillColor=none;align=left;verticalAlign=top;spacingLeft=4;spacingRight=4;overflow=hidden;rotatable=0;points=[[0,0.5],[1,0.5]];portConstraint=eastwest;whiteSpace=wrap;html=1;" vertex="1" parent="Gdn8Utj69mYLryFX6eAu-294">
          <mxGeometry x="202" y="209.33000000000015" width="120" height="30" as="geometry" />
        </mxCell>
        <mxCell id="Gdn8Utj69mYLryFX6eAu-272" value="VARCHAR(255)" style="text;strokeColor=none;fillColor=none;align=left;verticalAlign=top;spacingLeft=4;spacingRight=4;overflow=hidden;rotatable=0;points=[[0,0.5],[1,0.5]];portConstraint=eastwest;whiteSpace=wrap;html=1;" vertex="1" parent="Gdn8Utj69mYLryFX6eAu-294">
          <mxGeometry x="202" y="239.33000000000015" width="120" height="30" as="geometry" />
        </mxCell>
        <mxCell id="Gdn8Utj69mYLryFX6eAu-253" value="" style="endArrow=none;html=1;rounded=0;entryX=0.643;entryY=0.008;entryDx=0;entryDy=0;entryPerimeter=0;" edge="1" parent="Gdn8Utj69mYLryFX6eAu-294">
          <mxGeometry width="50" height="50" relative="1" as="geometry">
            <mxPoint x="201.5999999999999" y="269.33000000000004" as="sourcePoint" />
            <mxPoint x="201.5999999999999" y="29.329999999999984" as="targetPoint" />
          </mxGeometry>
        </mxCell>
        <mxCell id="Gdn8Utj69mYLryFX6eAu-416" value="" style="group" connectable="0" vertex="1" parent="WIyWlLk6GJQsqaUBKTNV-1">
          <mxGeometry x="417" y="940" width="322" height="1060.67" as="geometry" />
        </mxCell>
        <mxCell id="Gdn8Utj69mYLryFX6eAu-340" value="" style="shape=internalStorage;whiteSpace=wrap;html=1;backgroundOutline=1;dx=37;dy=60;movable=1;resizable=1;rotatable=1;deletable=1;editable=1;locked=0;connectable=1;shadow=0;" vertex="1" parent="Gdn8Utj69mYLryFX6eAu-416">
          <mxGeometry x="2" y="30" width="320" height="1030" as="geometry" />
        </mxCell>
        <mxCell id="Gdn8Utj69mYLryFX6eAu-341" value="&lt;b&gt;&lt;u&gt;id&lt;/u&gt;&lt;/b&gt;" style="text;strokeColor=none;fillColor=none;align=left;verticalAlign=top;spacingLeft=4;spacingRight=4;overflow=hidden;rotatable=0;points=[[0,0.5],[1,0.5]];portConstraint=eastwest;whiteSpace=wrap;html=1;" vertex="1" parent="Gdn8Utj69mYLryFX6eAu-416">
          <mxGeometry x="40" y="30" width="140" height="30" as="geometry" />
        </mxCell>
        <mxCell id="Gdn8Utj69mYLryFX6eAu-342" value="username" style="text;strokeColor=none;fillColor=none;align=left;verticalAlign=top;spacingLeft=4;spacingRight=4;overflow=hidden;rotatable=0;points=[[0,0.5],[1,0.5]];portConstraint=eastwest;whiteSpace=wrap;html=1;" vertex="1" parent="Gdn8Utj69mYLryFX6eAu-416">
          <mxGeometry x="40" y="91" width="160" height="30" as="geometry" />
        </mxCell>
        <mxCell id="Gdn8Utj69mYLryFX6eAu-343" value="PK1" style="text;html=1;align=center;verticalAlign=middle;resizable=0;points=[];autosize=1;strokeColor=none;fillColor=none;" vertex="1" parent="Gdn8Utj69mYLryFX6eAu-416">
          <mxGeometry x="-5" y="30" width="50" height="30" as="geometry" />
        </mxCell>
        <mxCell id="Gdn8Utj69mYLryFX6eAu-344" value="" style="endArrow=none;html=1;rounded=0;entryX=0.643;entryY=0.008;entryDx=0;entryDy=0;entryPerimeter=0;" edge="1" parent="Gdn8Utj69mYLryFX6eAu-416">
          <mxGeometry width="50" height="50" relative="1" as="geometry">
            <mxPoint x="201.38999999999987" y="1060.67" as="sourcePoint" />
            <mxPoint x="201.38999999999987" y="30.670000000000016" as="targetPoint" />
          </mxGeometry>
        </mxCell>
        <mxCell id="Gdn8Utj69mYLryFX6eAu-345" value="&lt;b&gt;&lt;u&gt;INT(11)&lt;/u&gt;&lt;/b&gt;" style="text;strokeColor=none;fillColor=none;align=left;verticalAlign=top;spacingLeft=4;spacingRight=4;overflow=hidden;rotatable=0;points=[[0,0.5],[1,0.5]];portConstraint=eastwest;whiteSpace=wrap;html=1;" vertex="1" parent="Gdn8Utj69mYLryFX6eAu-416">
          <mxGeometry x="202" y="30" width="120" height="30" as="geometry" />
        </mxCell>
        <mxCell id="Gdn8Utj69mYLryFX6eAu-346" value="" style="swimlane;startSize=0;" vertex="1" parent="Gdn8Utj69mYLryFX6eAu-416">
          <mxGeometry x="2" width="320" height="30" as="geometry" />
        </mxCell>
        <mxCell id="Gdn8Utj69mYLryFX6eAu-347" value="&lt;b&gt;members&lt;/b&gt;" style="text;html=1;align=center;verticalAlign=middle;resizable=0;points=[];autosize=1;strokeColor=none;fillColor=none;" vertex="1" parent="Gdn8Utj69mYLryFX6eAu-346">
          <mxGeometry x="110" width="80" height="30" as="geometry" />
        </mxCell>
        <mxCell id="Gdn8Utj69mYLryFX6eAu-348" value="&lt;b&gt;&lt;u&gt;email&lt;/u&gt;&lt;/b&gt;" style="text;strokeColor=none;fillColor=none;align=left;verticalAlign=top;spacingLeft=4;spacingRight=4;overflow=hidden;rotatable=0;points=[[0,0.5],[1,0.5]];portConstraint=eastwest;whiteSpace=wrap;html=1;" vertex="1" parent="Gdn8Utj69mYLryFX6eAu-416">
          <mxGeometry x="40" y="60" width="140" height="30" as="geometry" />
        </mxCell>
        <mxCell id="Gdn8Utj69mYLryFX6eAu-349" value="&lt;b&gt;&lt;u&gt;VARCHAR(255)&lt;/u&gt;&lt;/b&gt;" style="text;strokeColor=none;fillColor=none;align=left;verticalAlign=top;spacingLeft=4;spacingRight=4;overflow=hidden;rotatable=0;points=[[0,0.5],[1,0.5]];portConstraint=eastwest;whiteSpace=wrap;html=1;" vertex="1" parent="Gdn8Utj69mYLryFX6eAu-416">
          <mxGeometry x="202" y="60" width="120" height="30" as="geometry" />
        </mxCell>
        <mxCell id="Gdn8Utj69mYLryFX6eAu-350" value="VARCHAR(255)" style="text;strokeColor=none;fillColor=none;align=left;verticalAlign=top;spacingLeft=4;spacingRight=4;overflow=hidden;rotatable=0;points=[[0,0.5],[1,0.5]];portConstraint=eastwest;whiteSpace=wrap;html=1;" vertex="1" parent="Gdn8Utj69mYLryFX6eAu-416">
          <mxGeometry x="202" y="91" width="120" height="30" as="geometry" />
        </mxCell>
        <mxCell id="Gdn8Utj69mYLryFX6eAu-352" value="password" style="text;strokeColor=none;fillColor=none;align=left;verticalAlign=top;spacingLeft=4;spacingRight=4;overflow=hidden;rotatable=0;points=[[0,0.5],[1,0.5]];portConstraint=eastwest;whiteSpace=wrap;html=1;" vertex="1" parent="Gdn8Utj69mYLryFX6eAu-416">
          <mxGeometry x="40" y="121.67000000000002" width="160" height="30" as="geometry" />
        </mxCell>
        <mxCell id="Gdn8Utj69mYLryFX6eAu-353" value="environment_weight" style="text;strokeColor=none;fillColor=none;align=left;verticalAlign=top;spacingLeft=4;spacingRight=4;overflow=hidden;rotatable=0;points=[[0,0.5],[1,0.5]];portConstraint=eastwest;whiteSpace=wrap;html=1;" vertex="1" parent="Gdn8Utj69mYLryFX6eAu-416">
          <mxGeometry x="40" y="151" width="160" height="30" as="geometry" />
        </mxCell>
        <mxCell id="Gdn8Utj69mYLryFX6eAu-354" value="price_weight" style="text;strokeColor=none;fillColor=none;align=left;verticalAlign=top;spacingLeft=4;spacingRight=4;overflow=hidden;rotatable=0;points=[[0,0.5],[1,0.5]];portConstraint=eastwest;whiteSpace=wrap;html=1;" vertex="1" parent="Gdn8Utj69mYLryFX6eAu-416">
          <mxGeometry x="40" y="181" width="160" height="30" as="geometry" />
        </mxCell>
        <mxCell id="Gdn8Utj69mYLryFX6eAu-355" value="product_weight" style="text;strokeColor=none;fillColor=none;align=left;verticalAlign=top;spacingLeft=4;spacingRight=4;overflow=hidden;rotatable=0;points=[[0,0.5],[1,0.5]];portConstraint=eastwest;whiteSpace=wrap;html=1;" vertex="1" parent="Gdn8Utj69mYLryFX6eAu-416">
          <mxGeometry x="40" y="210" width="160" height="30" as="geometry" />
        </mxCell>
        <mxCell id="Gdn8Utj69mYLryFX6eAu-356" value="service_weight" style="text;strokeColor=none;fillColor=none;align=left;verticalAlign=top;spacingLeft=4;spacingRight=4;overflow=hidden;rotatable=0;points=[[0,0.5],[1,0.5]];portConstraint=eastwest;whiteSpace=wrap;html=1;" vertex="1" parent="Gdn8Utj69mYLryFX6eAu-416">
          <mxGeometry x="40" y="240" width="160" height="30" as="geometry" />
        </mxCell>
        <mxCell id="Gdn8Utj69mYLryFX6eAu-357" value="create_time" style="text;strokeColor=none;fillColor=none;align=left;verticalAlign=top;spacingLeft=4;spacingRight=4;overflow=hidden;rotatable=0;points=[[0,0.5],[1,0.5]];portConstraint=eastwest;whiteSpace=wrap;html=1;" vertex="1" parent="Gdn8Utj69mYLryFX6eAu-416">
          <mxGeometry x="40" y="270" width="160" height="30" as="geometry" />
        </mxCell>
        <mxCell id="Gdn8Utj69mYLryFX6eAu-358" value="open_now" style="text;strokeColor=none;fillColor=none;align=left;verticalAlign=top;spacingLeft=4;spacingRight=4;overflow=hidden;rotatable=0;points=[[0,0.5],[1,0.5]];portConstraint=eastwest;whiteSpace=wrap;html=1;" vertex="1" parent="Gdn8Utj69mYLryFX6eAu-416">
          <mxGeometry x="40" y="300" width="160" height="30" as="geometry" />
        </mxCell>
        <mxCell id="Gdn8Utj69mYLryFX6eAu-359" value="wheelchair-accessible" style="text;strokeColor=none;fillColor=none;align=left;verticalAlign=top;spacingLeft=4;spacingRight=4;overflow=hidden;rotatable=0;points=[[0,0.5],[1,0.5]];portConstraint=eastwest;whiteSpace=wrap;html=1;" vertex="1" parent="Gdn8Utj69mYLryFX6eAu-416">
          <mxGeometry x="40" y="330" width="160" height="30" as="geometry" />
        </mxCell>
        <mxCell id="Gdn8Utj69mYLryFX6eAu-360" value="vegetarian" style="text;strokeColor=none;fillColor=none;align=left;verticalAlign=top;spacingLeft=4;spacingRight=4;overflow=hidden;rotatable=0;points=[[0,0.5],[1,0.5]];portConstraint=eastwest;whiteSpace=wrap;html=1;" vertex="1" parent="Gdn8Utj69mYLryFX6eAu-416">
          <mxGeometry x="40" y="361" width="160" height="30" as="geometry" />
        </mxCell>
        <mxCell id="Gdn8Utj69mYLryFX6eAu-361" value="healthy" style="text;strokeColor=none;fillColor=none;align=left;verticalAlign=top;spacingLeft=4;spacingRight=4;overflow=hidden;rotatable=0;points=[[0,0.5],[1,0.5]];portConstraint=eastwest;whiteSpace=wrap;html=1;" vertex="1" parent="Gdn8Utj69mYLryFX6eAu-416">
          <mxGeometry x="40" y="390" width="160" height="30" as="geometry" />
        </mxCell>
        <mxCell id="Gdn8Utj69mYLryFX6eAu-362" value="kids_friendly" style="text;strokeColor=none;fillColor=none;align=left;verticalAlign=top;spacingLeft=4;spacingRight=4;overflow=hidden;rotatable=0;points=[[0,0.5],[1,0.5]];portConstraint=eastwest;whiteSpace=wrap;html=1;" vertex="1" parent="Gdn8Utj69mYLryFX6eAu-416">
          <mxGeometry x="40" y="420" width="160" height="30" as="geometry" />
        </mxCell>
        <mxCell id="Gdn8Utj69mYLryFX6eAu-363" value="pets_friendly" style="text;strokeColor=none;fillColor=none;align=left;verticalAlign=top;spacingLeft=4;spacingRight=4;overflow=hidden;rotatable=0;points=[[0,0.5],[1,0.5]];portConstraint=eastwest;whiteSpace=wrap;html=1;" vertex="1" parent="Gdn8Utj69mYLryFX6eAu-416">
          <mxGeometry x="40" y="450.6700000000001" width="160" height="30" as="geometry" />
        </mxCell>
        <mxCell id="Gdn8Utj69mYLryFX6eAu-364" value="family_friendly" style="text;strokeColor=none;fillColor=none;align=left;verticalAlign=top;spacingLeft=4;spacingRight=4;overflow=hidden;rotatable=0;points=[[0,0.5],[1,0.5]];portConstraint=eastwest;whiteSpace=wrap;html=1;" vertex="1" parent="Gdn8Utj69mYLryFX6eAu-416">
          <mxGeometry x="40" y="480" width="160" height="30" as="geometry" />
        </mxCell>
        <mxCell id="Gdn8Utj69mYLryFX6eAu-365" value="group_friendly" style="text;strokeColor=none;fillColor=none;align=left;verticalAlign=top;spacingLeft=4;spacingRight=4;overflow=hidden;rotatable=0;points=[[0,0.5],[1,0.5]];portConstraint=eastwest;whiteSpace=wrap;html=1;" vertex="1" parent="Gdn8Utj69mYLryFX6eAu-416">
          <mxGeometry x="40" y="510" width="160" height="30" as="geometry" />
        </mxCell>
        <mxCell id="Gdn8Utj69mYLryFX6eAu-366" value="parking" style="text;strokeColor=none;fillColor=none;align=left;verticalAlign=top;spacingLeft=4;spacingRight=4;overflow=hidden;rotatable=0;points=[[0,0.5],[1,0.5]];portConstraint=eastwest;whiteSpace=wrap;html=1;" vertex="1" parent="Gdn8Utj69mYLryFX6eAu-416">
          <mxGeometry x="40" y="539" width="160" height="30" as="geometry" />
        </mxCell>
        <mxCell id="Gdn8Utj69mYLryFX6eAu-367" value="delivery" style="text;strokeColor=none;fillColor=none;align=left;verticalAlign=top;spacingLeft=4;spacingRight=4;overflow=hidden;rotatable=0;points=[[0,0.5],[1,0.5]];portConstraint=eastwest;whiteSpace=wrap;html=1;" vertex="1" parent="Gdn8Utj69mYLryFX6eAu-416">
          <mxGeometry x="40" y="569" width="160" height="30" as="geometry" />
        </mxCell>
        <mxCell id="Gdn8Utj69mYLryFX6eAu-368" value="takeaway" style="text;strokeColor=none;fillColor=none;align=left;verticalAlign=top;spacingLeft=4;spacingRight=4;overflow=hidden;rotatable=0;points=[[0,0.5],[1,0.5]];portConstraint=eastwest;whiteSpace=wrap;html=1;" vertex="1" parent="Gdn8Utj69mYLryFX6eAu-416">
          <mxGeometry x="40" y="599" width="160" height="30" as="geometry" />
        </mxCell>
        <mxCell id="Gdn8Utj69mYLryFX6eAu-369" value="dine-in" style="text;strokeColor=none;fillColor=none;align=left;verticalAlign=top;spacingLeft=4;spacingRight=4;overflow=hidden;rotatable=0;points=[[0,0.5],[1,0.5]];portConstraint=eastwest;whiteSpace=wrap;html=1;" vertex="1" parent="Gdn8Utj69mYLryFX6eAu-416">
          <mxGeometry x="40" y="629" width="160" height="30" as="geometry" />
        </mxCell>
        <mxCell id="Gdn8Utj69mYLryFX6eAu-370" value="breakfast" style="text;strokeColor=none;fillColor=none;align=left;verticalAlign=top;spacingLeft=4;spacingRight=4;overflow=hidden;rotatable=0;points=[[0,0.5],[1,0.5]];portConstraint=eastwest;whiteSpace=wrap;html=1;" vertex="1" parent="Gdn8Utj69mYLryFX6eAu-416">
          <mxGeometry x="40" y="659" width="160" height="30" as="geometry" />
        </mxCell>
        <mxCell id="Gdn8Utj69mYLryFX6eAu-371" value="brunch" style="text;strokeColor=none;fillColor=none;align=left;verticalAlign=top;spacingLeft=4;spacingRight=4;overflow=hidden;rotatable=0;points=[[0,0.5],[1,0.5]];portConstraint=eastwest;whiteSpace=wrap;html=1;" vertex="1" parent="Gdn8Utj69mYLryFX6eAu-416">
          <mxGeometry x="40" y="690" width="160" height="30" as="geometry" />
        </mxCell>
        <mxCell id="Gdn8Utj69mYLryFX6eAu-372" value="lunch" style="text;strokeColor=none;fillColor=none;align=left;verticalAlign=top;spacingLeft=4;spacingRight=4;overflow=hidden;rotatable=0;points=[[0,0.5],[1,0.5]];portConstraint=eastwest;whiteSpace=wrap;html=1;" vertex="1" parent="Gdn8Utj69mYLryFX6eAu-416">
          <mxGeometry x="40" y="720" width="160" height="30" as="geometry" />
        </mxCell>
        <mxCell id="Gdn8Utj69mYLryFX6eAu-373" value="dinner" style="text;strokeColor=none;fillColor=none;align=left;verticalAlign=top;spacingLeft=4;spacingRight=4;overflow=hidden;rotatable=0;points=[[0,0.5],[1,0.5]];portConstraint=eastwest;whiteSpace=wrap;html=1;" vertex="1" parent="Gdn8Utj69mYLryFX6eAu-416">
          <mxGeometry x="40" y="750" width="160" height="30" as="geometry" />
        </mxCell>
        <mxCell id="Gdn8Utj69mYLryFX6eAu-374" value="casual" style="text;strokeColor=none;fillColor=none;align=left;verticalAlign=top;spacingLeft=4;spacingRight=4;overflow=hidden;rotatable=0;points=[[0,0.5],[1,0.5]];portConstraint=eastwest;whiteSpace=wrap;html=1;" vertex="1" parent="Gdn8Utj69mYLryFX6eAu-416">
          <mxGeometry x="40" y="781" width="160" height="30" as="geometry" />
        </mxCell>
        <mxCell id="Gdn8Utj69mYLryFX6eAu-375" value="cosy" style="text;strokeColor=none;fillColor=none;align=left;verticalAlign=top;spacingLeft=4;spacingRight=4;overflow=hidden;rotatable=0;points=[[0,0.5],[1,0.5]];portConstraint=eastwest;whiteSpace=wrap;html=1;" vertex="1" parent="Gdn8Utj69mYLryFX6eAu-416">
          <mxGeometry x="40" y="811" width="160" height="30" as="geometry" />
        </mxCell>
        <mxCell id="Gdn8Utj69mYLryFX6eAu-376" value="reservation" style="text;strokeColor=none;fillColor=none;align=left;verticalAlign=top;spacingLeft=4;spacingRight=4;overflow=hidden;rotatable=0;points=[[0,0.5],[1,0.5]];portConstraint=eastwest;whiteSpace=wrap;html=1;" vertex="1" parent="Gdn8Utj69mYLryFX6eAu-416">
          <mxGeometry x="40" y="842" width="160" height="30" as="geometry" />
        </mxCell>
        <mxCell id="Gdn8Utj69mYLryFX6eAu-377" value="toilet" style="text;strokeColor=none;fillColor=none;align=left;verticalAlign=top;spacingLeft=4;spacingRight=4;overflow=hidden;rotatable=0;points=[[0,0.5],[1,0.5]];portConstraint=eastwest;whiteSpace=wrap;html=1;" vertex="1" parent="Gdn8Utj69mYLryFX6eAu-416">
          <mxGeometry x="40" y="872" width="160" height="30" as="geometry" />
        </mxCell>
        <mxCell id="Gdn8Utj69mYLryFX6eAu-378" value="wi-fi" style="text;strokeColor=none;fillColor=none;align=left;verticalAlign=top;spacingLeft=4;spacingRight=4;overflow=hidden;rotatable=0;points=[[0,0.5],[1,0.5]];portConstraint=eastwest;whiteSpace=wrap;html=1;" vertex="1" parent="Gdn8Utj69mYLryFX6eAu-416">
          <mxGeometry x="40" y="902" width="160" height="30" as="geometry" />
        </mxCell>
        <mxCell id="Gdn8Utj69mYLryFX6eAu-379" value="cash" style="text;strokeColor=none;fillColor=none;align=left;verticalAlign=top;spacingLeft=4;spacingRight=4;overflow=hidden;rotatable=0;points=[[0,0.5],[1,0.5]];portConstraint=eastwest;whiteSpace=wrap;html=1;" vertex="1" parent="Gdn8Utj69mYLryFX6eAu-416">
          <mxGeometry x="40" y="933" width="160" height="30" as="geometry" />
        </mxCell>
        <mxCell id="Gdn8Utj69mYLryFX6eAu-380" value="credit_card" style="text;strokeColor=none;fillColor=none;align=left;verticalAlign=top;spacingLeft=4;spacingRight=4;overflow=hidden;rotatable=0;points=[[0,0.5],[1,0.5]];portConstraint=eastwest;whiteSpace=wrap;html=1;" vertex="1" parent="Gdn8Utj69mYLryFX6eAu-416">
          <mxGeometry x="40" y="963" width="160" height="30" as="geometry" />
        </mxCell>
        <mxCell id="Gdn8Utj69mYLryFX6eAu-381" value="debit_card" style="text;strokeColor=none;fillColor=none;align=left;verticalAlign=top;spacingLeft=4;spacingRight=4;overflow=hidden;rotatable=0;points=[[0,0.5],[1,0.5]];portConstraint=eastwest;whiteSpace=wrap;html=1;" vertex="1" parent="Gdn8Utj69mYLryFX6eAu-416">
          <mxGeometry x="40" y="993" width="160" height="30" as="geometry" />
        </mxCell>
        <mxCell id="Gdn8Utj69mYLryFX6eAu-382" value="mobile_payment" style="text;strokeColor=none;fillColor=none;align=left;verticalAlign=top;spacingLeft=4;spacingRight=4;overflow=hidden;rotatable=0;points=[[0,0.5],[1,0.5]];portConstraint=eastwest;whiteSpace=wrap;html=1;" vertex="1" parent="Gdn8Utj69mYLryFX6eAu-416">
          <mxGeometry x="40" y="1023" width="160" height="30" as="geometry" />
        </mxCell>
        <mxCell id="Gdn8Utj69mYLryFX6eAu-384" value="VARCHAR(255)" style="text;strokeColor=none;fillColor=none;align=left;verticalAlign=top;spacingLeft=4;spacingRight=4;overflow=hidden;rotatable=0;points=[[0,0.5],[1,0.5]];portConstraint=eastwest;whiteSpace=wrap;html=1;" vertex="1" parent="Gdn8Utj69mYLryFX6eAu-416">
          <mxGeometry x="200" y="121.67000000000002" width="120" height="30" as="geometry" />
        </mxCell>
        <mxCell id="Gdn8Utj69mYLryFX6eAu-386" value="INT(11)" style="text;strokeColor=none;fillColor=none;align=left;verticalAlign=top;spacingLeft=4;spacingRight=4;overflow=hidden;rotatable=0;points=[[0,0.5],[1,0.5]];portConstraint=eastwest;whiteSpace=wrap;html=1;" vertex="1" parent="Gdn8Utj69mYLryFX6eAu-416">
          <mxGeometry x="202" y="151.67000000000002" width="120" height="30" as="geometry" />
        </mxCell>
        <mxCell id="Gdn8Utj69mYLryFX6eAu-387" value="INT(11)" style="text;strokeColor=none;fillColor=none;align=left;verticalAlign=top;spacingLeft=4;spacingRight=4;overflow=hidden;rotatable=0;points=[[0,0.5],[1,0.5]];portConstraint=eastwest;whiteSpace=wrap;html=1;" vertex="1" parent="Gdn8Utj69mYLryFX6eAu-416">
          <mxGeometry x="202" y="181.67000000000002" width="120" height="30" as="geometry" />
        </mxCell>
        <mxCell id="Gdn8Utj69mYLryFX6eAu-388" value="INT(11)" style="text;strokeColor=none;fillColor=none;align=left;verticalAlign=top;spacingLeft=4;spacingRight=4;overflow=hidden;rotatable=0;points=[[0,0.5],[1,0.5]];portConstraint=eastwest;whiteSpace=wrap;html=1;" vertex="1" parent="Gdn8Utj69mYLryFX6eAu-416">
          <mxGeometry x="202" y="211" width="120" height="30" as="geometry" />
        </mxCell>
        <mxCell id="Gdn8Utj69mYLryFX6eAu-389" value="INT(11)" style="text;strokeColor=none;fillColor=none;align=left;verticalAlign=top;spacingLeft=4;spacingRight=4;overflow=hidden;rotatable=0;points=[[0,0.5],[1,0.5]];portConstraint=eastwest;whiteSpace=wrap;html=1;" vertex="1" parent="Gdn8Utj69mYLryFX6eAu-416">
          <mxGeometry x="202" y="241" width="120" height="30" as="geometry" />
        </mxCell>
        <mxCell id="Gdn8Utj69mYLryFX6eAu-390" value="TIMESTAMP" style="text;strokeColor=none;fillColor=none;align=left;verticalAlign=top;spacingLeft=4;spacingRight=4;overflow=hidden;rotatable=0;points=[[0,0.5],[1,0.5]];portConstraint=eastwest;whiteSpace=wrap;html=1;" vertex="1" parent="Gdn8Utj69mYLryFX6eAu-416">
          <mxGeometry x="202" y="271" width="120" height="30" as="geometry" />
        </mxCell>
        <mxCell id="Gdn8Utj69mYLryFX6eAu-391" value="TINYINT(4)" style="text;strokeColor=none;fillColor=none;align=left;verticalAlign=top;spacingLeft=4;spacingRight=4;overflow=hidden;rotatable=0;points=[[0,0.5],[1,0.5]];portConstraint=eastwest;whiteSpace=wrap;html=1;" vertex="1" parent="Gdn8Utj69mYLryFX6eAu-416">
          <mxGeometry x="202" y="300" width="120" height="30" as="geometry" />
        </mxCell>
        <mxCell id="Gdn8Utj69mYLryFX6eAu-392" value="TINYINT(4)" style="text;strokeColor=none;fillColor=none;align=left;verticalAlign=top;spacingLeft=4;spacingRight=4;overflow=hidden;rotatable=0;points=[[0,0.5],[1,0.5]];portConstraint=eastwest;whiteSpace=wrap;html=1;" vertex="1" parent="Gdn8Utj69mYLryFX6eAu-416">
          <mxGeometry x="202" y="330" width="120" height="30" as="geometry" />
        </mxCell>
        <mxCell id="Gdn8Utj69mYLryFX6eAu-393" value="TINYINT(4)" style="text;strokeColor=none;fillColor=none;align=left;verticalAlign=top;spacingLeft=4;spacingRight=4;overflow=hidden;rotatable=0;points=[[0,0.5],[1,0.5]];portConstraint=eastwest;whiteSpace=wrap;html=1;" vertex="1" parent="Gdn8Utj69mYLryFX6eAu-416">
          <mxGeometry x="202" y="361" width="120" height="30" as="geometry" />
        </mxCell>
        <mxCell id="Gdn8Utj69mYLryFX6eAu-394" value="TINYINT(4)" style="text;strokeColor=none;fillColor=none;align=left;verticalAlign=top;spacingLeft=4;spacingRight=4;overflow=hidden;rotatable=0;points=[[0,0.5],[1,0.5]];portConstraint=eastwest;whiteSpace=wrap;html=1;" vertex="1" parent="Gdn8Utj69mYLryFX6eAu-416">
          <mxGeometry x="202" y="391" width="120" height="30" as="geometry" />
        </mxCell>
        <mxCell id="Gdn8Utj69mYLryFX6eAu-395" value="TINYINT(4)" style="text;strokeColor=none;fillColor=none;align=left;verticalAlign=top;spacingLeft=4;spacingRight=4;overflow=hidden;rotatable=0;points=[[0,0.5],[1,0.5]];portConstraint=eastwest;whiteSpace=wrap;html=1;" vertex="1" parent="Gdn8Utj69mYLryFX6eAu-416">
          <mxGeometry x="202" y="418" width="120" height="30" as="geometry" />
        </mxCell>
        <mxCell id="Gdn8Utj69mYLryFX6eAu-396" value="TINYINT(4)" style="text;strokeColor=none;fillColor=none;align=left;verticalAlign=top;spacingLeft=4;spacingRight=4;overflow=hidden;rotatable=0;points=[[0,0.5],[1,0.5]];portConstraint=eastwest;whiteSpace=wrap;html=1;" vertex="1" parent="Gdn8Utj69mYLryFX6eAu-416">
          <mxGeometry x="202" y="448" width="120" height="30" as="geometry" />
        </mxCell>
        <mxCell id="Gdn8Utj69mYLryFX6eAu-397" value="TINYINT(4)" style="text;strokeColor=none;fillColor=none;align=left;verticalAlign=top;spacingLeft=4;spacingRight=4;overflow=hidden;rotatable=0;points=[[0,0.5],[1,0.5]];portConstraint=eastwest;whiteSpace=wrap;html=1;" vertex="1" parent="Gdn8Utj69mYLryFX6eAu-416">
          <mxGeometry x="202" y="479" width="120" height="30" as="geometry" />
        </mxCell>
        <mxCell id="Gdn8Utj69mYLryFX6eAu-398" value="TINYINT(4)" style="text;strokeColor=none;fillColor=none;align=left;verticalAlign=top;spacingLeft=4;spacingRight=4;overflow=hidden;rotatable=0;points=[[0,0.5],[1,0.5]];portConstraint=eastwest;whiteSpace=wrap;html=1;" vertex="1" parent="Gdn8Utj69mYLryFX6eAu-416">
          <mxGeometry x="202" y="509" width="120" height="30" as="geometry" />
        </mxCell>
        <mxCell id="Gdn8Utj69mYLryFX6eAu-399" value="TINYINT(4)" style="text;strokeColor=none;fillColor=none;align=left;verticalAlign=top;spacingLeft=4;spacingRight=4;overflow=hidden;rotatable=0;points=[[0,0.5],[1,0.5]];portConstraint=eastwest;whiteSpace=wrap;html=1;" vertex="1" parent="Gdn8Utj69mYLryFX6eAu-416">
          <mxGeometry x="202" y="539" width="120" height="30" as="geometry" />
        </mxCell>
        <mxCell id="Gdn8Utj69mYLryFX6eAu-400" value="TINYINT(4)" style="text;strokeColor=none;fillColor=none;align=left;verticalAlign=top;spacingLeft=4;spacingRight=4;overflow=hidden;rotatable=0;points=[[0,0.5],[1,0.5]];portConstraint=eastwest;whiteSpace=wrap;html=1;" vertex="1" parent="Gdn8Utj69mYLryFX6eAu-416">
          <mxGeometry x="202" y="569" width="120" height="30" as="geometry" />
        </mxCell>
        <mxCell id="Gdn8Utj69mYLryFX6eAu-401" value="TINYINT(4)" style="text;strokeColor=none;fillColor=none;align=left;verticalAlign=top;spacingLeft=4;spacingRight=4;overflow=hidden;rotatable=0;points=[[0,0.5],[1,0.5]];portConstraint=eastwest;whiteSpace=wrap;html=1;" vertex="1" parent="Gdn8Utj69mYLryFX6eAu-416">
          <mxGeometry x="202" y="600" width="120" height="30" as="geometry" />
        </mxCell>
        <mxCell id="Gdn8Utj69mYLryFX6eAu-402" value="TINYINT(4)" style="text;strokeColor=none;fillColor=none;align=left;verticalAlign=top;spacingLeft=4;spacingRight=4;overflow=hidden;rotatable=0;points=[[0,0.5],[1,0.5]];portConstraint=eastwest;whiteSpace=wrap;html=1;" vertex="1" parent="Gdn8Utj69mYLryFX6eAu-416">
          <mxGeometry x="202" y="630" width="120" height="30" as="geometry" />
        </mxCell>
        <mxCell id="Gdn8Utj69mYLryFX6eAu-403" value="TINYINT(4)" style="text;strokeColor=none;fillColor=none;align=left;verticalAlign=top;spacingLeft=4;spacingRight=4;overflow=hidden;rotatable=0;points=[[0,0.5],[1,0.5]];portConstraint=eastwest;whiteSpace=wrap;html=1;" vertex="1" parent="Gdn8Utj69mYLryFX6eAu-416">
          <mxGeometry x="202" y="657" width="120" height="30" as="geometry" />
        </mxCell>
        <mxCell id="Gdn8Utj69mYLryFX6eAu-404" value="TINYINT(4)" style="text;strokeColor=none;fillColor=none;align=left;verticalAlign=top;spacingLeft=4;spacingRight=4;overflow=hidden;rotatable=0;points=[[0,0.5],[1,0.5]];portConstraint=eastwest;whiteSpace=wrap;html=1;" vertex="1" parent="Gdn8Utj69mYLryFX6eAu-416">
          <mxGeometry x="202" y="687" width="120" height="30" as="geometry" />
        </mxCell>
        <mxCell id="Gdn8Utj69mYLryFX6eAu-405" value="TINYINT(4)" style="text;strokeColor=none;fillColor=none;align=left;verticalAlign=top;spacingLeft=4;spacingRight=4;overflow=hidden;rotatable=0;points=[[0,0.5],[1,0.5]];portConstraint=eastwest;whiteSpace=wrap;html=1;" vertex="1" parent="Gdn8Utj69mYLryFX6eAu-416">
          <mxGeometry x="202" y="718" width="120" height="30" as="geometry" />
        </mxCell>
        <mxCell id="Gdn8Utj69mYLryFX6eAu-406" value="TINYINT(4)" style="text;strokeColor=none;fillColor=none;align=left;verticalAlign=top;spacingLeft=4;spacingRight=4;overflow=hidden;rotatable=0;points=[[0,0.5],[1,0.5]];portConstraint=eastwest;whiteSpace=wrap;html=1;" vertex="1" parent="Gdn8Utj69mYLryFX6eAu-416">
          <mxGeometry x="202" y="748" width="120" height="30" as="geometry" />
        </mxCell>
        <mxCell id="Gdn8Utj69mYLryFX6eAu-407" value="TINYINT(4)" style="text;strokeColor=none;fillColor=none;align=left;verticalAlign=top;spacingLeft=4;spacingRight=4;overflow=hidden;rotatable=0;points=[[0,0.5],[1,0.5]];portConstraint=eastwest;whiteSpace=wrap;html=1;" vertex="1" parent="Gdn8Utj69mYLryFX6eAu-416">
          <mxGeometry x="202" y="778" width="120" height="30" as="geometry" />
        </mxCell>
        <mxCell id="Gdn8Utj69mYLryFX6eAu-408" value="TINYINT(4)" style="text;strokeColor=none;fillColor=none;align=left;verticalAlign=top;spacingLeft=4;spacingRight=4;overflow=hidden;rotatable=0;points=[[0,0.5],[1,0.5]];portConstraint=eastwest;whiteSpace=wrap;html=1;" vertex="1" parent="Gdn8Utj69mYLryFX6eAu-416">
          <mxGeometry x="202" y="808" width="120" height="30" as="geometry" />
        </mxCell>
        <mxCell id="Gdn8Utj69mYLryFX6eAu-409" value="TINYINT(4)" style="text;strokeColor=none;fillColor=none;align=left;verticalAlign=top;spacingLeft=4;spacingRight=4;overflow=hidden;rotatable=0;points=[[0,0.5],[1,0.5]];portConstraint=eastwest;whiteSpace=wrap;html=1;" vertex="1" parent="Gdn8Utj69mYLryFX6eAu-416">
          <mxGeometry x="202" y="839" width="120" height="30" as="geometry" />
        </mxCell>
        <mxCell id="Gdn8Utj69mYLryFX6eAu-410" value="TINYINT(4)" style="text;strokeColor=none;fillColor=none;align=left;verticalAlign=top;spacingLeft=4;spacingRight=4;overflow=hidden;rotatable=0;points=[[0,0.5],[1,0.5]];portConstraint=eastwest;whiteSpace=wrap;html=1;" vertex="1" parent="Gdn8Utj69mYLryFX6eAu-416">
          <mxGeometry x="202" y="869" width="120" height="30" as="geometry" />
        </mxCell>
        <mxCell id="Gdn8Utj69mYLryFX6eAu-411" value="TINYINT(4)" style="text;strokeColor=none;fillColor=none;align=left;verticalAlign=top;spacingLeft=4;spacingRight=4;overflow=hidden;rotatable=0;points=[[0,0.5],[1,0.5]];portConstraint=eastwest;whiteSpace=wrap;html=1;" vertex="1" parent="Gdn8Utj69mYLryFX6eAu-416">
          <mxGeometry x="202" y="896" width="120" height="30" as="geometry" />
        </mxCell>
        <mxCell id="Gdn8Utj69mYLryFX6eAu-412" value="TINYINT(4)" style="text;strokeColor=none;fillColor=none;align=left;verticalAlign=top;spacingLeft=4;spacingRight=4;overflow=hidden;rotatable=0;points=[[0,0.5],[1,0.5]];portConstraint=eastwest;whiteSpace=wrap;html=1;" vertex="1" parent="Gdn8Utj69mYLryFX6eAu-416">
          <mxGeometry x="202" y="926" width="120" height="30" as="geometry" />
        </mxCell>
        <mxCell id="Gdn8Utj69mYLryFX6eAu-413" value="TINYINT(4)" style="text;strokeColor=none;fillColor=none;align=left;verticalAlign=top;spacingLeft=4;spacingRight=4;overflow=hidden;rotatable=0;points=[[0,0.5],[1,0.5]];portConstraint=eastwest;whiteSpace=wrap;html=1;" vertex="1" parent="Gdn8Utj69mYLryFX6eAu-416">
          <mxGeometry x="202" y="957" width="120" height="30" as="geometry" />
        </mxCell>
        <mxCell id="Gdn8Utj69mYLryFX6eAu-414" value="TINYINT(4)" style="text;strokeColor=none;fillColor=none;align=left;verticalAlign=top;spacingLeft=4;spacingRight=4;overflow=hidden;rotatable=0;points=[[0,0.5],[1,0.5]];portConstraint=eastwest;whiteSpace=wrap;html=1;" vertex="1" parent="Gdn8Utj69mYLryFX6eAu-416">
          <mxGeometry x="202" y="987" width="120" height="30" as="geometry" />
        </mxCell>
        <mxCell id="Gdn8Utj69mYLryFX6eAu-415" value="TINYINT(4)" style="text;strokeColor=none;fillColor=none;align=left;verticalAlign=top;spacingLeft=4;spacingRight=4;overflow=hidden;rotatable=0;points=[[0,0.5],[1,0.5]];portConstraint=eastwest;whiteSpace=wrap;html=1;" vertex="1" parent="Gdn8Utj69mYLryFX6eAu-416">
          <mxGeometry x="202" y="1023" width="120" height="30" as="geometry" />
        </mxCell>
        <mxCell id="Gdn8Utj69mYLryFX6eAu-599" value="PK2" style="text;html=1;align=center;verticalAlign=middle;resizable=0;points=[];autosize=1;strokeColor=none;fillColor=none;" vertex="1" parent="Gdn8Utj69mYLryFX6eAu-416">
          <mxGeometry x="-5" y="60" width="50" height="30" as="geometry" />
        </mxCell>
        <mxCell id="Gdn8Utj69mYLryFX6eAu-452" value="" style="group" connectable="0" vertex="1" parent="WIyWlLk6GJQsqaUBKTNV-1">
          <mxGeometry x="1187" y="1670" width="322" height="220.66999999999996" as="geometry" />
        </mxCell>
        <mxCell id="Gdn8Utj69mYLryFX6eAu-417" value="" style="shape=internalStorage;whiteSpace=wrap;html=1;backgroundOutline=1;dx=37;dy=60;movable=1;resizable=1;rotatable=1;deletable=1;editable=1;locked=0;connectable=1;shadow=0;" vertex="1" parent="Gdn8Utj69mYLryFX6eAu-452">
          <mxGeometry x="2" y="30" width="320" height="190" as="geometry" />
        </mxCell>
        <mxCell id="Gdn8Utj69mYLryFX6eAu-418" value="&lt;b&gt;&lt;u&gt;store_id&lt;/u&gt;&lt;/b&gt;" style="text;strokeColor=none;fillColor=none;align=left;verticalAlign=top;spacingLeft=4;spacingRight=4;overflow=hidden;rotatable=0;points=[[0,0.5],[1,0.5]];portConstraint=eastwest;whiteSpace=wrap;html=1;" vertex="1" parent="Gdn8Utj69mYLryFX6eAu-452">
          <mxGeometry x="40" y="30" width="140" height="30" as="geometry" />
        </mxCell>
        <mxCell id="Gdn8Utj69mYLryFX6eAu-419" value="day_of_week" style="text;strokeColor=none;fillColor=none;align=left;verticalAlign=top;spacingLeft=4;spacingRight=4;overflow=hidden;rotatable=0;points=[[0,0.5],[1,0.5]];portConstraint=eastwest;whiteSpace=wrap;html=1;" vertex="1" parent="Gdn8Utj69mYLryFX6eAu-452">
          <mxGeometry x="40" y="91" width="160" height="30" as="geometry" />
        </mxCell>
        <mxCell id="Gdn8Utj69mYLryFX6eAu-420" value="PK1" style="text;html=1;align=center;verticalAlign=middle;resizable=0;points=[];autosize=1;strokeColor=none;fillColor=none;" vertex="1" parent="Gdn8Utj69mYLryFX6eAu-452">
          <mxGeometry x="-5" y="30" width="50" height="30" as="geometry" />
        </mxCell>
        <mxCell id="Gdn8Utj69mYLryFX6eAu-421" value="" style="endArrow=none;html=1;rounded=0;entryX=0.643;entryY=0.008;entryDx=0;entryDy=0;entryPerimeter=0;" edge="1" parent="Gdn8Utj69mYLryFX6eAu-452">
          <mxGeometry width="50" height="50" relative="1" as="geometry">
            <mxPoint x="201.5300000000002" y="220.66999999999996" as="sourcePoint" />
            <mxPoint x="201.5300000000002" y="30.670000000000016" as="targetPoint" />
          </mxGeometry>
        </mxCell>
        <mxCell id="Gdn8Utj69mYLryFX6eAu-422" value="&lt;b&gt;&lt;u&gt;INT(11)&lt;/u&gt;&lt;/b&gt;" style="text;strokeColor=none;fillColor=none;align=left;verticalAlign=top;spacingLeft=4;spacingRight=4;overflow=hidden;rotatable=0;points=[[0,0.5],[1,0.5]];portConstraint=eastwest;whiteSpace=wrap;html=1;" vertex="1" parent="Gdn8Utj69mYLryFX6eAu-452">
          <mxGeometry x="202" y="30" width="120" height="30" as="geometry" />
        </mxCell>
        <mxCell id="Gdn8Utj69mYLryFX6eAu-423" value="" style="swimlane;startSize=0;" vertex="1" parent="Gdn8Utj69mYLryFX6eAu-452">
          <mxGeometry x="2" width="320" height="30" as="geometry" />
        </mxCell>
        <mxCell id="Gdn8Utj69mYLryFX6eAu-424" value="&lt;b&gt;openhours&lt;/b&gt;" style="text;html=1;align=center;verticalAlign=middle;resizable=0;points=[];autosize=1;strokeColor=none;fillColor=none;" vertex="1" parent="Gdn8Utj69mYLryFX6eAu-423">
          <mxGeometry x="105" width="90" height="30" as="geometry" />
        </mxCell>
        <mxCell id="Gdn8Utj69mYLryFX6eAu-425" value="&lt;u&gt;&lt;b&gt;id&lt;/b&gt;&lt;/u&gt;" style="text;strokeColor=none;fillColor=none;align=left;verticalAlign=top;spacingLeft=4;spacingRight=4;overflow=hidden;rotatable=0;points=[[0,0.5],[1,0.5]];portConstraint=eastwest;whiteSpace=wrap;html=1;" vertex="1" parent="Gdn8Utj69mYLryFX6eAu-452">
          <mxGeometry x="40" y="60" width="140" height="30" as="geometry" />
        </mxCell>
        <mxCell id="Gdn8Utj69mYLryFX6eAu-426" value="&lt;u&gt;&lt;b&gt;INT(11)&lt;/b&gt;&lt;/u&gt;" style="text;strokeColor=none;fillColor=none;align=left;verticalAlign=top;spacingLeft=4;spacingRight=4;overflow=hidden;rotatable=0;points=[[0,0.5],[1,0.5]];portConstraint=eastwest;whiteSpace=wrap;html=1;" vertex="1" parent="Gdn8Utj69mYLryFX6eAu-452">
          <mxGeometry x="202" y="60" width="120" height="30" as="geometry" />
        </mxCell>
        <mxCell id="Gdn8Utj69mYLryFX6eAu-427" value="VARCHAR(3)" style="text;strokeColor=none;fillColor=none;align=left;verticalAlign=top;spacingLeft=4;spacingRight=4;overflow=hidden;rotatable=0;points=[[0,0.5],[1,0.5]];portConstraint=eastwest;whiteSpace=wrap;html=1;" vertex="1" parent="Gdn8Utj69mYLryFX6eAu-452">
          <mxGeometry x="202" y="91" width="120" height="30" as="geometry" />
        </mxCell>
        <mxCell id="Gdn8Utj69mYLryFX6eAu-429" value="day_of_week" style="text;strokeColor=none;fillColor=none;align=left;verticalAlign=top;spacingLeft=4;spacingRight=4;overflow=hidden;rotatable=0;points=[[0,0.5],[1,0.5]];portConstraint=eastwest;whiteSpace=wrap;html=1;" vertex="1" parent="Gdn8Utj69mYLryFX6eAu-452">
          <mxGeometry x="40" y="121.67000000000002" width="160" height="30" as="geometry" />
        </mxCell>
        <mxCell id="Gdn8Utj69mYLryFX6eAu-430" value="day_of_week" style="text;strokeColor=none;fillColor=none;align=left;verticalAlign=top;spacingLeft=4;spacingRight=4;overflow=hidden;rotatable=0;points=[[0,0.5],[1,0.5]];portConstraint=eastwest;whiteSpace=wrap;html=1;" vertex="1" parent="Gdn8Utj69mYLryFX6eAu-452">
          <mxGeometry x="40" y="151.67000000000002" width="160" height="30" as="geometry" />
        </mxCell>
        <mxCell id="Gdn8Utj69mYLryFX6eAu-431" value="day_of_week" style="text;strokeColor=none;fillColor=none;align=left;verticalAlign=top;spacingLeft=4;spacingRight=4;overflow=hidden;rotatable=0;points=[[0,0.5],[1,0.5]];portConstraint=eastwest;whiteSpace=wrap;html=1;" vertex="1" parent="Gdn8Utj69mYLryFX6eAu-452">
          <mxGeometry x="40" y="182.34000000000003" width="160" height="30" as="geometry" />
        </mxCell>
        <mxCell id="Gdn8Utj69mYLryFX6eAu-432" value="TIME" style="text;strokeColor=none;fillColor=none;align=left;verticalAlign=top;spacingLeft=4;spacingRight=4;overflow=hidden;rotatable=0;points=[[0,0.5],[1,0.5]];portConstraint=eastwest;whiteSpace=wrap;html=1;" vertex="1" parent="Gdn8Utj69mYLryFX6eAu-452">
          <mxGeometry x="202" y="121.67000000000002" width="120" height="30" as="geometry" />
        </mxCell>
        <mxCell id="Gdn8Utj69mYLryFX6eAu-433" value="TIME" style="text;strokeColor=none;fillColor=none;align=left;verticalAlign=top;spacingLeft=4;spacingRight=4;overflow=hidden;rotatable=0;points=[[0,0.5],[1,0.5]];portConstraint=eastwest;whiteSpace=wrap;html=1;" vertex="1" parent="Gdn8Utj69mYLryFX6eAu-452">
          <mxGeometry x="202" y="151.67000000000002" width="120" height="30" as="geometry" />
        </mxCell>
        <mxCell id="Gdn8Utj69mYLryFX6eAu-434" value="TIME" style="text;strokeColor=none;fillColor=none;align=left;verticalAlign=top;spacingLeft=4;spacingRight=4;overflow=hidden;rotatable=0;points=[[0,0.5],[1,0.5]];portConstraint=eastwest;whiteSpace=wrap;html=1;" vertex="1" parent="Gdn8Utj69mYLryFX6eAu-452">
          <mxGeometry x="202" y="182.34000000000003" width="120" height="30" as="geometry" />
        </mxCell>
        <mxCell id="Gdn8Utj69mYLryFX6eAu-702" value="PK2" style="text;html=1;align=center;verticalAlign=middle;resizable=0;points=[];autosize=1;strokeColor=none;fillColor=none;" vertex="1" parent="Gdn8Utj69mYLryFX6eAu-452">
          <mxGeometry x="-5" y="60" width="50" height="30" as="geometry" />
        </mxCell>
        <mxCell id="Gdn8Utj69mYLryFX6eAu-474" value="" style="group" connectable="0" vertex="1" parent="WIyWlLk6GJQsqaUBKTNV-1">
          <mxGeometry x="827" y="1430" width="323" height="520" as="geometry" />
        </mxCell>
        <mxCell id="Gdn8Utj69mYLryFX6eAu-435" value="" style="shape=internalStorage;whiteSpace=wrap;html=1;backgroundOutline=1;dx=36;dy=30;movable=1;resizable=1;rotatable=1;deletable=1;editable=1;locked=0;connectable=1;shadow=0;" vertex="1" parent="Gdn8Utj69mYLryFX6eAu-474">
          <mxGeometry x="2" y="30" width="320" height="490" as="geometry" />
        </mxCell>
        <mxCell id="Gdn8Utj69mYLryFX6eAu-436" value="&lt;b&gt;&lt;u&gt;store_id&lt;/u&gt;&lt;/b&gt;" style="text;strokeColor=none;fillColor=none;align=left;verticalAlign=top;spacingLeft=4;spacingRight=4;overflow=hidden;rotatable=0;points=[[0,0.5],[1,0.5]];portConstraint=eastwest;whiteSpace=wrap;html=1;" vertex="1" parent="Gdn8Utj69mYLryFX6eAu-474">
          <mxGeometry x="40" y="30" width="140" height="30" as="geometry" />
        </mxCell>
        <mxCell id="Gdn8Utj69mYLryFX6eAu-437" value="total_reviews" style="text;strokeColor=none;fillColor=none;align=left;verticalAlign=top;spacingLeft=4;spacingRight=4;overflow=hidden;rotatable=0;points=[[0,0.5],[1,0.5]];portConstraint=eastwest;whiteSpace=wrap;html=1;" vertex="1" parent="Gdn8Utj69mYLryFX6eAu-474">
          <mxGeometry x="40" y="91" width="160" height="30" as="geometry" />
        </mxCell>
        <mxCell id="Gdn8Utj69mYLryFX6eAu-438" value="PK" style="text;html=1;align=center;verticalAlign=middle;resizable=0;points=[];autosize=1;strokeColor=none;fillColor=none;" vertex="1" parent="Gdn8Utj69mYLryFX6eAu-474">
          <mxGeometry y="30" width="40" height="30" as="geometry" />
        </mxCell>
        <mxCell id="Gdn8Utj69mYLryFX6eAu-440" value="&lt;u&gt;&lt;b&gt;INT(11)&lt;/b&gt;&lt;/u&gt;" style="text;strokeColor=none;fillColor=none;align=left;verticalAlign=top;spacingLeft=4;spacingRight=4;overflow=hidden;rotatable=0;points=[[0,0.5],[1,0.5]];portConstraint=eastwest;whiteSpace=wrap;html=1;" vertex="1" parent="Gdn8Utj69mYLryFX6eAu-474">
          <mxGeometry x="202" y="30" width="120" height="30" as="geometry" />
        </mxCell>
        <mxCell id="Gdn8Utj69mYLryFX6eAu-441" value="" style="swimlane;startSize=0;" vertex="1" parent="Gdn8Utj69mYLryFX6eAu-474">
          <mxGeometry x="2" width="320" height="30" as="geometry" />
        </mxCell>
        <mxCell id="Gdn8Utj69mYLryFX6eAu-442" value="&lt;b&gt;rates&lt;/b&gt;" style="text;html=1;align=center;verticalAlign=middle;resizable=0;points=[];autosize=1;strokeColor=none;fillColor=none;" vertex="1" parent="Gdn8Utj69mYLryFX6eAu-441">
          <mxGeometry x="125" width="50" height="30" as="geometry" />
        </mxCell>
        <mxCell id="Gdn8Utj69mYLryFX6eAu-443" value="avg_ratings" style="text;strokeColor=none;fillColor=none;align=left;verticalAlign=top;spacingLeft=4;spacingRight=4;overflow=hidden;rotatable=0;points=[[0,0.5],[1,0.5]];portConstraint=eastwest;whiteSpace=wrap;html=1;" vertex="1" parent="Gdn8Utj69mYLryFX6eAu-474">
          <mxGeometry x="40" y="60" width="140" height="30" as="geometry" />
        </mxCell>
        <mxCell id="Gdn8Utj69mYLryFX6eAu-444" value="DECIMAL(2,1)" style="text;strokeColor=none;fillColor=none;align=left;verticalAlign=top;spacingLeft=4;spacingRight=4;overflow=hidden;rotatable=0;points=[[0,0.5],[1,0.5]];portConstraint=eastwest;whiteSpace=wrap;html=1;" vertex="1" parent="Gdn8Utj69mYLryFX6eAu-474">
          <mxGeometry x="202" y="60" width="120" height="30" as="geometry" />
        </mxCell>
        <mxCell id="Gdn8Utj69mYLryFX6eAu-445" value="INT(11)" style="text;strokeColor=none;fillColor=none;align=left;verticalAlign=top;spacingLeft=4;spacingRight=4;overflow=hidden;rotatable=0;points=[[0,0.5],[1,0.5]];portConstraint=eastwest;whiteSpace=wrap;html=1;" vertex="1" parent="Gdn8Utj69mYLryFX6eAu-474">
          <mxGeometry x="202" y="91" width="120" height="30" as="geometry" />
        </mxCell>
        <mxCell id="Gdn8Utj69mYLryFX6eAu-446" value="total_browses" style="text;strokeColor=none;fillColor=none;align=left;verticalAlign=top;spacingLeft=4;spacingRight=4;overflow=hidden;rotatable=0;points=[[0,0.5],[1,0.5]];portConstraint=eastwest;whiteSpace=wrap;html=1;" vertex="1" parent="Gdn8Utj69mYLryFX6eAu-474">
          <mxGeometry x="40" y="121.67000000000007" width="160" height="30" as="geometry" />
        </mxCell>
        <mxCell id="Gdn8Utj69mYLryFX6eAu-447" value="total_samples" style="text;strokeColor=none;fillColor=none;align=left;verticalAlign=top;spacingLeft=4;spacingRight=4;overflow=hidden;rotatable=0;points=[[0,0.5],[1,0.5]];portConstraint=eastwest;whiteSpace=wrap;html=1;" vertex="1" parent="Gdn8Utj69mYLryFX6eAu-474">
          <mxGeometry x="40" y="151.67000000000007" width="160" height="30" as="geometry" />
        </mxCell>
        <mxCell id="Gdn8Utj69mYLryFX6eAu-448" value="total_withcomments" style="text;strokeColor=none;fillColor=none;align=left;verticalAlign=top;spacingLeft=4;spacingRight=4;overflow=hidden;rotatable=0;points=[[0,0.5],[1,0.5]];portConstraint=eastwest;whiteSpace=wrap;html=1;" vertex="1" parent="Gdn8Utj69mYLryFX6eAu-474">
          <mxGeometry x="40" y="182.34000000000003" width="160" height="30" as="geometry" />
        </mxCell>
        <mxCell id="Gdn8Utj69mYLryFX6eAu-449" value="INT(11)" style="text;strokeColor=none;fillColor=none;align=left;verticalAlign=top;spacingLeft=4;spacingRight=4;overflow=hidden;rotatable=0;points=[[0,0.5],[1,0.5]];portConstraint=eastwest;whiteSpace=wrap;html=1;" vertex="1" parent="Gdn8Utj69mYLryFX6eAu-474">
          <mxGeometry x="202" y="121.67000000000007" width="120" height="30" as="geometry" />
        </mxCell>
        <mxCell id="Gdn8Utj69mYLryFX6eAu-450" value="INT(11)" style="text;strokeColor=none;fillColor=none;align=left;verticalAlign=top;spacingLeft=4;spacingRight=4;overflow=hidden;rotatable=0;points=[[0,0.5],[1,0.5]];portConstraint=eastwest;whiteSpace=wrap;html=1;" vertex="1" parent="Gdn8Utj69mYLryFX6eAu-474">
          <mxGeometry x="202" y="151.67000000000007" width="120" height="30" as="geometry" />
        </mxCell>
        <mxCell id="Gdn8Utj69mYLryFX6eAu-451" value="INT(11)" style="text;strokeColor=none;fillColor=none;align=left;verticalAlign=top;spacingLeft=4;spacingRight=4;overflow=hidden;rotatable=0;points=[[0,0.5],[1,0.5]];portConstraint=eastwest;whiteSpace=wrap;html=1;" vertex="1" parent="Gdn8Utj69mYLryFX6eAu-474">
          <mxGeometry x="202" y="182.34000000000003" width="120" height="30" as="geometry" />
        </mxCell>
        <mxCell id="Gdn8Utj69mYLryFX6eAu-453" value="mixreviews_count" style="text;strokeColor=none;fillColor=none;align=left;verticalAlign=top;spacingLeft=4;spacingRight=4;overflow=hidden;rotatable=0;points=[[0,0.5],[1,0.5]];portConstraint=eastwest;whiteSpace=wrap;html=1;" vertex="1" parent="Gdn8Utj69mYLryFX6eAu-474">
          <mxGeometry x="40" y="243.34000000000003" width="160" height="30" as="geometry" />
        </mxCell>
        <mxCell id="Gdn8Utj69mYLryFX6eAu-454" value="total_withoutcomments" style="text;strokeColor=none;fillColor=none;align=left;verticalAlign=top;spacingLeft=4;spacingRight=4;overflow=hidden;rotatable=0;points=[[0,0.5],[1,0.5]];portConstraint=eastwest;whiteSpace=wrap;html=1;" vertex="1" parent="Gdn8Utj69mYLryFX6eAu-474">
          <mxGeometry x="40" y="212.34000000000003" width="158" height="30" as="geometry" />
        </mxCell>
        <mxCell id="Gdn8Utj69mYLryFX6eAu-455" value="additionalcomments_count" style="text;strokeColor=none;fillColor=none;align=left;verticalAlign=top;spacingLeft=4;spacingRight=4;overflow=hidden;rotatable=0;points=[[0,0.5],[1,0.5]];portConstraint=eastwest;whiteSpace=wrap;html=1;" vertex="1" parent="Gdn8Utj69mYLryFX6eAu-474">
          <mxGeometry x="40" y="274.0100000000001" width="160" height="30" as="geometry" />
        </mxCell>
        <mxCell id="Gdn8Utj69mYLryFX6eAu-456" value="real_rating" style="text;strokeColor=none;fillColor=none;align=left;verticalAlign=top;spacingLeft=4;spacingRight=4;overflow=hidden;rotatable=0;points=[[0,0.5],[1,0.5]];portConstraint=eastwest;whiteSpace=wrap;html=1;" vertex="1" parent="Gdn8Utj69mYLryFX6eAu-474">
          <mxGeometry x="40" y="304.0100000000001" width="160" height="30" as="geometry" />
        </mxCell>
        <mxCell id="Gdn8Utj69mYLryFX6eAu-457" value="comments_analysis" style="text;strokeColor=none;fillColor=none;align=left;verticalAlign=top;spacingLeft=4;spacingRight=4;overflow=hidden;rotatable=0;points=[[0,0.5],[1,0.5]];portConstraint=eastwest;whiteSpace=wrap;html=1;" vertex="1" parent="Gdn8Utj69mYLryFX6eAu-474">
          <mxGeometry x="40" y="334.68000000000006" width="160" height="30" as="geometry" />
        </mxCell>
        <mxCell id="Gdn8Utj69mYLryFX6eAu-458" value="environment_rating" style="text;strokeColor=none;fillColor=none;align=left;verticalAlign=top;spacingLeft=4;spacingRight=4;overflow=hidden;rotatable=0;points=[[0,0.5],[1,0.5]];portConstraint=eastwest;whiteSpace=wrap;html=1;" vertex="1" parent="Gdn8Utj69mYLryFX6eAu-474">
          <mxGeometry x="40" y="364.68000000000006" width="160" height="30" as="geometry" />
        </mxCell>
        <mxCell id="Gdn8Utj69mYLryFX6eAu-459" value="product_rating" style="text;strokeColor=none;fillColor=none;align=left;verticalAlign=top;spacingLeft=4;spacingRight=4;overflow=hidden;rotatable=0;points=[[0,0.5],[1,0.5]];portConstraint=eastwest;whiteSpace=wrap;html=1;" vertex="1" parent="Gdn8Utj69mYLryFX6eAu-474">
          <mxGeometry x="40" y="425.68000000000006" width="160" height="30" as="geometry" />
        </mxCell>
        <mxCell id="Gdn8Utj69mYLryFX6eAu-460" value="price_rating" style="text;strokeColor=none;fillColor=none;align=left;verticalAlign=top;spacingLeft=4;spacingRight=4;overflow=hidden;rotatable=0;points=[[0,0.5],[1,0.5]];portConstraint=eastwest;whiteSpace=wrap;html=1;" vertex="1" parent="Gdn8Utj69mYLryFX6eAu-474">
          <mxGeometry x="40" y="394.68000000000006" width="158" height="30" as="geometry" />
        </mxCell>
        <mxCell id="Gdn8Utj69mYLryFX6eAu-461" value="service_rating" style="text;strokeColor=none;fillColor=none;align=left;verticalAlign=top;spacingLeft=4;spacingRight=4;overflow=hidden;rotatable=0;points=[[0,0.5],[1,0.5]];portConstraint=eastwest;whiteSpace=wrap;html=1;" vertex="1" parent="Gdn8Utj69mYLryFX6eAu-474">
          <mxGeometry x="40" y="456.35000000000014" width="160" height="30" as="geometry" />
        </mxCell>
        <mxCell id="Gdn8Utj69mYLryFX6eAu-462" value="store_responses" style="text;strokeColor=none;fillColor=none;align=left;verticalAlign=top;spacingLeft=4;spacingRight=4;overflow=hidden;rotatable=0;points=[[0,0.5],[1,0.5]];portConstraint=eastwest;whiteSpace=wrap;html=1;" vertex="1" parent="Gdn8Utj69mYLryFX6eAu-474">
          <mxGeometry x="40" y="486.35000000000014" width="160" height="30" as="geometry" />
        </mxCell>
        <mxCell id="Gdn8Utj69mYLryFX6eAu-464" value="INT(11)" style="text;strokeColor=none;fillColor=none;align=left;verticalAlign=top;spacingLeft=4;spacingRight=4;overflow=hidden;rotatable=0;points=[[0,0.5],[1,0.5]];portConstraint=eastwest;whiteSpace=wrap;html=1;" vertex="1" parent="Gdn8Utj69mYLryFX6eAu-474">
          <mxGeometry x="202" y="212.34000000000003" width="120" height="30" as="geometry" />
        </mxCell>
        <mxCell id="Gdn8Utj69mYLryFX6eAu-465" value="INT(11)" style="text;strokeColor=none;fillColor=none;align=left;verticalAlign=top;spacingLeft=4;spacingRight=4;overflow=hidden;rotatable=0;points=[[0,0.5],[1,0.5]];portConstraint=eastwest;whiteSpace=wrap;html=1;" vertex="1" parent="Gdn8Utj69mYLryFX6eAu-474">
          <mxGeometry x="202" y="243.0100000000001" width="120" height="30" as="geometry" />
        </mxCell>
        <mxCell id="Gdn8Utj69mYLryFX6eAu-466" value="INT(11)" style="text;strokeColor=none;fillColor=none;align=left;verticalAlign=top;spacingLeft=4;spacingRight=4;overflow=hidden;rotatable=0;points=[[0,0.5],[1,0.5]];portConstraint=eastwest;whiteSpace=wrap;html=1;" vertex="1" parent="Gdn8Utj69mYLryFX6eAu-474">
          <mxGeometry x="202" y="273.0100000000001" width="120" height="30" as="geometry" />
        </mxCell>
        <mxCell id="Gdn8Utj69mYLryFX6eAu-467" value="DECIMAL(2,1)" style="text;strokeColor=none;fillColor=none;align=left;verticalAlign=top;spacingLeft=4;spacingRight=4;overflow=hidden;rotatable=0;points=[[0,0.5],[1,0.5]];portConstraint=eastwest;whiteSpace=wrap;html=1;" vertex="1" parent="Gdn8Utj69mYLryFX6eAu-474">
          <mxGeometry x="202" y="303.68000000000006" width="120" height="30" as="geometry" />
        </mxCell>
        <mxCell id="Gdn8Utj69mYLryFX6eAu-468" value="TINYINT(4)" style="text;strokeColor=none;fillColor=none;align=left;verticalAlign=top;spacingLeft=4;spacingRight=4;overflow=hidden;rotatable=0;points=[[0,0.5],[1,0.5]];portConstraint=eastwest;whiteSpace=wrap;html=1;" vertex="1" parent="Gdn8Utj69mYLryFX6eAu-474">
          <mxGeometry x="202" y="333.68000000000006" width="120" height="30" as="geometry" />
        </mxCell>
        <mxCell id="Gdn8Utj69mYLryFX6eAu-469" value="DECIMAL(6,3)" style="text;strokeColor=none;fillColor=none;align=left;verticalAlign=top;spacingLeft=4;spacingRight=4;overflow=hidden;rotatable=0;points=[[0,0.5],[1,0.5]];portConstraint=eastwest;whiteSpace=wrap;html=1;" vertex="1" parent="Gdn8Utj69mYLryFX6eAu-474">
          <mxGeometry x="202" y="364.35000000000014" width="120" height="30" as="geometry" />
        </mxCell>
        <mxCell id="Gdn8Utj69mYLryFX6eAu-470" value="DECIMAL(6,3)" style="text;strokeColor=none;fillColor=none;align=left;verticalAlign=top;spacingLeft=4;spacingRight=4;overflow=hidden;rotatable=0;points=[[0,0.5],[1,0.5]];portConstraint=eastwest;whiteSpace=wrap;html=1;" vertex="1" parent="Gdn8Utj69mYLryFX6eAu-474">
          <mxGeometry x="202" y="394.35000000000014" width="120" height="30" as="geometry" />
        </mxCell>
        <mxCell id="Gdn8Utj69mYLryFX6eAu-471" value="DECIMAL(6,3)" style="text;strokeColor=none;fillColor=none;align=left;verticalAlign=top;spacingLeft=4;spacingRight=4;overflow=hidden;rotatable=0;points=[[0,0.5],[1,0.5]];portConstraint=eastwest;whiteSpace=wrap;html=1;" vertex="1" parent="Gdn8Utj69mYLryFX6eAu-474">
          <mxGeometry x="202" y="425.02" width="120" height="30" as="geometry" />
        </mxCell>
        <mxCell id="Gdn8Utj69mYLryFX6eAu-472" value="DECIMAL(6,3)" style="text;strokeColor=none;fillColor=none;align=left;verticalAlign=top;spacingLeft=4;spacingRight=4;overflow=hidden;rotatable=0;points=[[0,0.5],[1,0.5]];portConstraint=eastwest;whiteSpace=wrap;html=1;" vertex="1" parent="Gdn8Utj69mYLryFX6eAu-474">
          <mxGeometry x="202" y="455.6800000000002" width="120" height="30" as="geometry" />
        </mxCell>
        <mxCell id="Gdn8Utj69mYLryFX6eAu-473" value="INT(11)" style="text;strokeColor=none;fillColor=none;align=left;verticalAlign=top;spacingLeft=4;spacingRight=4;overflow=hidden;rotatable=0;points=[[0,0.5],[1,0.5]];portConstraint=eastwest;whiteSpace=wrap;html=1;" vertex="1" parent="Gdn8Utj69mYLryFX6eAu-474">
          <mxGeometry x="203" y="486.3499999999999" width="120" height="30" as="geometry" />
        </mxCell>
        <mxCell id="Gdn8Utj69mYLryFX6eAu-439" value="" style="endArrow=none;html=1;rounded=0;entryX=0.643;entryY=0.008;entryDx=0;entryDy=0;entryPerimeter=0;" edge="1" parent="Gdn8Utj69mYLryFX6eAu-474">
          <mxGeometry width="50" height="50" relative="1" as="geometry">
            <mxPoint x="202.3800000000001" y="520" as="sourcePoint" />
            <mxPoint x="202.3800000000001" y="30.000000000000114" as="targetPoint" />
          </mxGeometry>
        </mxCell>
        <mxCell id="Gdn8Utj69mYLryFX6eAu-509" value="" style="group" connectable="0" vertex="1" parent="WIyWlLk6GJQsqaUBKTNV-1">
          <mxGeometry x="1681" y="740" width="322" height="190" as="geometry" />
        </mxCell>
        <mxCell id="Gdn8Utj69mYLryFX6eAu-476" value="" style="shape=internalStorage;whiteSpace=wrap;html=1;backgroundOutline=1;dx=37;dy=60;movable=1;resizable=1;rotatable=1;deletable=1;editable=1;locked=0;connectable=1;shadow=0;container=0;" vertex="1" parent="Gdn8Utj69mYLryFX6eAu-509">
          <mxGeometry x="2" y="30" width="320" height="160" as="geometry" />
        </mxCell>
        <mxCell id="Gdn8Utj69mYLryFX6eAu-477" value="&lt;b&gt;&lt;u&gt;store_id&lt;/u&gt;&lt;/b&gt;" style="text;strokeColor=none;fillColor=none;align=left;verticalAlign=top;spacingLeft=4;spacingRight=4;overflow=hidden;rotatable=0;points=[[0,0.5],[1,0.5]];portConstraint=eastwest;whiteSpace=wrap;html=1;container=0;" vertex="1" parent="Gdn8Utj69mYLryFX6eAu-509">
          <mxGeometry x="40" y="30" width="140" height="30" as="geometry" />
        </mxCell>
        <mxCell id="Gdn8Utj69mYLryFX6eAu-478" value="property" style="text;strokeColor=none;fillColor=none;align=left;verticalAlign=top;spacingLeft=4;spacingRight=4;overflow=hidden;rotatable=0;points=[[0,0.5],[1,0.5]];portConstraint=eastwest;whiteSpace=wrap;html=1;container=0;" vertex="1" parent="Gdn8Utj69mYLryFX6eAu-509">
          <mxGeometry x="40" y="91" width="160" height="30" as="geometry" />
        </mxCell>
        <mxCell id="Gdn8Utj69mYLryFX6eAu-479" value="PK1" style="text;html=1;align=center;verticalAlign=middle;resizable=0;points=[];autosize=1;strokeColor=none;fillColor=none;container=0;" vertex="1" parent="Gdn8Utj69mYLryFX6eAu-509">
          <mxGeometry x="-5" y="30" width="50" height="30" as="geometry" />
        </mxCell>
        <mxCell id="Gdn8Utj69mYLryFX6eAu-480" value="" style="endArrow=none;html=1;rounded=0;entryX=0.643;entryY=0.008;entryDx=0;entryDy=0;entryPerimeter=0;exitX=0.623;exitY=0.997;exitDx=0;exitDy=0;exitPerimeter=0;" edge="1" parent="Gdn8Utj69mYLryFX6eAu-509" source="Gdn8Utj69mYLryFX6eAu-476">
          <mxGeometry width="50" height="50" relative="1" as="geometry">
            <mxPoint x="201.5300000000002" y="220.67000000000007" as="sourcePoint" />
            <mxPoint x="201.5300000000002" y="30.670000000000073" as="targetPoint" />
          </mxGeometry>
        </mxCell>
        <mxCell id="Gdn8Utj69mYLryFX6eAu-481" value="&lt;u&gt;&lt;b&gt;INT(11)&lt;/b&gt;&lt;/u&gt;" style="text;strokeColor=none;fillColor=none;align=left;verticalAlign=top;spacingLeft=4;spacingRight=4;overflow=hidden;rotatable=0;points=[[0,0.5],[1,0.5]];portConstraint=eastwest;whiteSpace=wrap;html=1;container=0;" vertex="1" parent="Gdn8Utj69mYLryFX6eAu-509">
          <mxGeometry x="202" y="30" width="120" height="30" as="geometry" />
        </mxCell>
        <mxCell id="Gdn8Utj69mYLryFX6eAu-482" value="" style="swimlane;startSize=0;container=0;" vertex="1" parent="Gdn8Utj69mYLryFX6eAu-509">
          <mxGeometry x="2" width="320" height="30" as="geometry" />
        </mxCell>
        <mxCell id="Gdn8Utj69mYLryFX6eAu-484" value="&lt;b&gt;&lt;u&gt;id&lt;/u&gt;&lt;/b&gt;" style="text;strokeColor=none;fillColor=none;align=left;verticalAlign=top;spacingLeft=4;spacingRight=4;overflow=hidden;rotatable=0;points=[[0,0.5],[1,0.5]];portConstraint=eastwest;whiteSpace=wrap;html=1;container=0;" vertex="1" parent="Gdn8Utj69mYLryFX6eAu-509">
          <mxGeometry x="40" y="60" width="140" height="30" as="geometry" />
        </mxCell>
        <mxCell id="Gdn8Utj69mYLryFX6eAu-485" value="&lt;b&gt;&lt;u&gt;INT(11)&lt;/u&gt;&lt;/b&gt;" style="text;strokeColor=none;fillColor=none;align=left;verticalAlign=top;spacingLeft=4;spacingRight=4;overflow=hidden;rotatable=0;points=[[0,0.5],[1,0.5]];portConstraint=eastwest;whiteSpace=wrap;html=1;container=0;" vertex="1" parent="Gdn8Utj69mYLryFX6eAu-509">
          <mxGeometry x="202" y="60" width="120" height="30" as="geometry" />
        </mxCell>
        <mxCell id="Gdn8Utj69mYLryFX6eAu-486" value="VARCHAR(20)" style="text;strokeColor=none;fillColor=none;align=left;verticalAlign=top;spacingLeft=4;spacingRight=4;overflow=hidden;rotatable=0;points=[[0,0.5],[1,0.5]];portConstraint=eastwest;whiteSpace=wrap;html=1;container=0;" vertex="1" parent="Gdn8Utj69mYLryFX6eAu-509">
          <mxGeometry x="202" y="91" width="120" height="30" as="geometry" />
        </mxCell>
        <mxCell id="Gdn8Utj69mYLryFX6eAu-487" value="category" style="text;strokeColor=none;fillColor=none;align=left;verticalAlign=top;spacingLeft=4;spacingRight=4;overflow=hidden;rotatable=0;points=[[0,0.5],[1,0.5]];portConstraint=eastwest;whiteSpace=wrap;html=1;container=0;" vertex="1" parent="Gdn8Utj69mYLryFX6eAu-509">
          <mxGeometry x="40" y="121.67000000000007" width="160" height="30" as="geometry" />
        </mxCell>
        <mxCell id="Gdn8Utj69mYLryFX6eAu-488" value="state" style="text;strokeColor=none;fillColor=none;align=left;verticalAlign=top;spacingLeft=4;spacingRight=4;overflow=hidden;rotatable=0;points=[[0,0.5],[1,0.5]];portConstraint=eastwest;whiteSpace=wrap;html=1;container=0;" vertex="1" parent="Gdn8Utj69mYLryFX6eAu-509">
          <mxGeometry x="40" y="151.67000000000007" width="160" height="30" as="geometry" />
        </mxCell>
        <mxCell id="Gdn8Utj69mYLryFX6eAu-490" value="VARCHAR(20)" style="text;strokeColor=none;fillColor=none;align=left;verticalAlign=top;spacingLeft=4;spacingRight=4;overflow=hidden;rotatable=0;points=[[0,0.5],[1,0.5]];portConstraint=eastwest;whiteSpace=wrap;html=1;container=0;" vertex="1" parent="Gdn8Utj69mYLryFX6eAu-509">
          <mxGeometry x="202" y="121.67000000000007" width="120" height="30" as="geometry" />
        </mxCell>
        <mxCell id="Gdn8Utj69mYLryFX6eAu-491" value="TINYINT(4)" style="text;strokeColor=none;fillColor=none;align=left;verticalAlign=top;spacingLeft=4;spacingRight=4;overflow=hidden;rotatable=0;points=[[0,0.5],[1,0.5]];portConstraint=eastwest;whiteSpace=wrap;html=1;container=0;" vertex="1" parent="Gdn8Utj69mYLryFX6eAu-509">
          <mxGeometry x="202" y="151.67000000000007" width="120" height="30" as="geometry" />
        </mxCell>
        <mxCell id="Gdn8Utj69mYLryFX6eAu-483" value="&lt;b&gt;services&lt;/b&gt;" style="text;html=1;align=center;verticalAlign=middle;resizable=0;points=[];autosize=1;strokeColor=none;fillColor=none;container=0;" vertex="1" parent="Gdn8Utj69mYLryFX6eAu-509">
          <mxGeometry x="117" width="70" height="30" as="geometry" />
        </mxCell>
        <mxCell id="Gdn8Utj69mYLryFX6eAu-691" value="PK2" style="text;html=1;align=center;verticalAlign=middle;resizable=0;points=[];autosize=1;strokeColor=none;fillColor=none;container=0;" vertex="1" parent="Gdn8Utj69mYLryFX6eAu-509">
          <mxGeometry x="-5" y="60" width="50" height="30" as="geometry" />
        </mxCell>
        <mxCell id="Gdn8Utj69mYLryFX6eAu-583" value="" style="group" connectable="0" vertex="1" parent="WIyWlLk6GJQsqaUBKTNV-1">
          <mxGeometry x="837" y="1240" width="322" height="100" as="geometry" />
        </mxCell>
        <mxCell id="Gdn8Utj69mYLryFX6eAu-562" value="" style="shape=internalStorage;whiteSpace=wrap;html=1;backgroundOutline=1;dx=38;dy=30;movable=1;resizable=1;rotatable=1;deletable=1;editable=1;locked=0;connectable=1;shadow=0;" vertex="1" parent="Gdn8Utj69mYLryFX6eAu-583">
          <mxGeometry x="2" y="30" width="320" height="70" as="geometry" />
        </mxCell>
        <mxCell id="Gdn8Utj69mYLryFX6eAu-563" value="tag" style="text;strokeColor=none;fillColor=none;align=left;verticalAlign=top;spacingLeft=4;spacingRight=4;overflow=hidden;rotatable=0;points=[[0,0.5],[1,0.5]];portConstraint=eastwest;whiteSpace=wrap;html=1;" vertex="1" parent="Gdn8Utj69mYLryFX6eAu-583">
          <mxGeometry x="38" y="30" width="140" height="30" as="geometry" />
        </mxCell>
        <mxCell id="Gdn8Utj69mYLryFX6eAu-565" value="PK" style="text;html=1;align=center;verticalAlign=middle;resizable=0;points=[];autosize=1;strokeColor=none;fillColor=none;" vertex="1" parent="Gdn8Utj69mYLryFX6eAu-583">
          <mxGeometry x="2" y="30" width="40" height="30" as="geometry" />
        </mxCell>
        <mxCell id="Gdn8Utj69mYLryFX6eAu-566" value="VARCHAR(20)" style="text;strokeColor=none;fillColor=none;align=left;verticalAlign=top;spacingLeft=4;spacingRight=4;overflow=hidden;rotatable=0;points=[[0,0.5],[1,0.5]];portConstraint=eastwest;whiteSpace=wrap;html=1;" vertex="1" parent="Gdn8Utj69mYLryFX6eAu-583">
          <mxGeometry x="202" y="30" width="120" height="30" as="geometry" />
        </mxCell>
        <mxCell id="Gdn8Utj69mYLryFX6eAu-567" value="" style="swimlane;startSize=0;" vertex="1" parent="Gdn8Utj69mYLryFX6eAu-583">
          <mxGeometry x="2" width="320" height="30" as="geometry" />
        </mxCell>
        <mxCell id="Gdn8Utj69mYLryFX6eAu-568" value="&lt;b&gt;tags&lt;/b&gt;" style="text;html=1;align=center;verticalAlign=middle;resizable=0;points=[];autosize=1;strokeColor=none;fillColor=none;" vertex="1" parent="Gdn8Utj69mYLryFX6eAu-567">
          <mxGeometry x="125" width="50" height="30" as="geometry" />
        </mxCell>
        <mxCell id="Gdn8Utj69mYLryFX6eAu-569" value="category" style="text;strokeColor=none;fillColor=none;align=left;verticalAlign=top;spacingLeft=4;spacingRight=4;overflow=hidden;rotatable=0;points=[[0,0.5],[1,0.5]];portConstraint=eastwest;whiteSpace=wrap;html=1;" vertex="1" parent="Gdn8Utj69mYLryFX6eAu-583">
          <mxGeometry x="38" y="60.000000000000114" width="140" height="30" as="geometry" />
        </mxCell>
        <mxCell id="Gdn8Utj69mYLryFX6eAu-570" value="VARCHAR(20)" style="text;strokeColor=none;fillColor=none;align=left;verticalAlign=top;spacingLeft=4;spacingRight=4;overflow=hidden;rotatable=0;points=[[0,0.5],[1,0.5]];portConstraint=eastwest;whiteSpace=wrap;html=1;" vertex="1" parent="Gdn8Utj69mYLryFX6eAu-583">
          <mxGeometry x="202" y="60.000000000000114" width="120" height="30" as="geometry" />
        </mxCell>
        <mxCell id="Gdn8Utj69mYLryFX6eAu-582" value="" style="endArrow=none;html=1;rounded=0;entryX=0.643;entryY=0.008;entryDx=0;entryDy=0;entryPerimeter=0;" edge="1" parent="Gdn8Utj69mYLryFX6eAu-583">
          <mxGeometry width="50" height="50" relative="1" as="geometry">
            <mxPoint x="202" y="100" as="sourcePoint" />
            <mxPoint x="201.5999999999999" y="29.329999999999927" as="targetPoint" />
          </mxGeometry>
        </mxCell>
        <mxCell id="Gdn8Utj69mYLryFX6eAu-584" value="" style="group" connectable="0" vertex="1" parent="WIyWlLk6GJQsqaUBKTNV-1">
          <mxGeometry x="1247" y="960" width="322" height="421" as="geometry" />
        </mxCell>
        <mxCell id="Gdn8Utj69mYLryFX6eAu-55" value="" style="shape=internalStorage;whiteSpace=wrap;html=1;backgroundOutline=1;dx=37;dy=60;movable=1;resizable=1;rotatable=1;deletable=1;editable=1;locked=0;connectable=1;shadow=0;" vertex="1" parent="Gdn8Utj69mYLryFX6eAu-584">
          <mxGeometry x="2" y="30" width="320" height="390" as="geometry" />
        </mxCell>
        <mxCell id="Gdn8Utj69mYLryFX6eAu-56" value="&lt;b&gt;&lt;u&gt;id&lt;/u&gt;&lt;/b&gt;" style="text;strokeColor=none;fillColor=none;align=left;verticalAlign=top;spacingLeft=4;spacingRight=4;overflow=hidden;rotatable=0;points=[[0,0.5],[1,0.5]];portConstraint=eastwest;whiteSpace=wrap;html=1;" vertex="1" parent="Gdn8Utj69mYLryFX6eAu-584">
          <mxGeometry x="42" y="30" width="140" height="30" as="geometry" />
        </mxCell>
        <mxCell id="Gdn8Utj69mYLryFX6eAu-57" value="branch_title" style="text;strokeColor=none;fillColor=none;align=left;verticalAlign=top;spacingLeft=4;spacingRight=4;overflow=hidden;rotatable=0;points=[[0,0.5],[1,0.5]];portConstraint=eastwest;whiteSpace=wrap;html=1;" vertex="1" parent="Gdn8Utj69mYLryFX6eAu-584">
          <mxGeometry x="40" y="91" width="160" height="30" as="geometry" />
        </mxCell>
        <mxCell id="Gdn8Utj69mYLryFX6eAu-62" value="PK1" style="text;html=1;align=center;verticalAlign=middle;resizable=0;points=[];autosize=1;strokeColor=none;fillColor=none;" vertex="1" parent="Gdn8Utj69mYLryFX6eAu-584">
          <mxGeometry x="-4" y="30" width="50" height="30" as="geometry" />
        </mxCell>
        <mxCell id="Gdn8Utj69mYLryFX6eAu-63" value="" style="endArrow=none;html=1;rounded=0;entryX=0.643;entryY=0.008;entryDx=0;entryDy=0;entryPerimeter=0;exitX=0.008;exitY=1.022;exitDx=0;exitDy=0;exitPerimeter=0;" edge="1" parent="Gdn8Utj69mYLryFX6eAu-584" source="Gdn8Utj69mYLryFX6eAu-92">
          <mxGeometry width="50" height="50" relative="1" as="geometry">
            <mxPoint x="202" y="250" as="sourcePoint" />
            <mxPoint x="201.99999999999994" y="30" as="targetPoint" />
          </mxGeometry>
        </mxCell>
        <mxCell id="Gdn8Utj69mYLryFX6eAu-64" value="&lt;u&gt;&lt;b&gt;INT(11)&lt;/b&gt;&lt;/u&gt;" style="text;strokeColor=none;fillColor=none;align=left;verticalAlign=top;spacingLeft=4;spacingRight=4;overflow=hidden;rotatable=0;points=[[0,0.5],[1,0.5]];portConstraint=eastwest;whiteSpace=wrap;html=1;" vertex="1" parent="Gdn8Utj69mYLryFX6eAu-584">
          <mxGeometry x="202" y="30" width="120" height="30" as="geometry" />
        </mxCell>
        <mxCell id="Gdn8Utj69mYLryFX6eAu-66" value="" style="swimlane;startSize=0;" vertex="1" parent="Gdn8Utj69mYLryFX6eAu-584">
          <mxGeometry x="2" width="320" height="30" as="geometry" />
        </mxCell>
        <mxCell id="Gdn8Utj69mYLryFX6eAu-67" value="&lt;b&gt;Stores&lt;/b&gt;" style="text;html=1;align=center;verticalAlign=middle;resizable=0;points=[];autosize=1;strokeColor=none;fillColor=none;" vertex="1" parent="Gdn8Utj69mYLryFX6eAu-66">
          <mxGeometry x="129" width="60" height="30" as="geometry" />
        </mxCell>
        <mxCell id="Gdn8Utj69mYLryFX6eAu-70" value="&lt;b&gt;&lt;u&gt;name&lt;/u&gt;&lt;/b&gt;" style="text;strokeColor=none;fillColor=none;align=left;verticalAlign=top;spacingLeft=4;spacingRight=4;overflow=hidden;rotatable=0;points=[[0,0.5],[1,0.5]];portConstraint=eastwest;whiteSpace=wrap;html=1;" vertex="1" parent="Gdn8Utj69mYLryFX6eAu-584">
          <mxGeometry x="42" y="60" width="140" height="30" as="geometry" />
        </mxCell>
        <mxCell id="Gdn8Utj69mYLryFX6eAu-71" value="&lt;u&gt;&lt;b&gt;VARCHAR(255)&lt;/b&gt;&lt;/u&gt;" style="text;strokeColor=none;fillColor=none;align=left;verticalAlign=top;spacingLeft=4;spacingRight=4;overflow=hidden;rotatable=0;points=[[0,0.5],[1,0.5]];portConstraint=eastwest;whiteSpace=wrap;html=1;" vertex="1" parent="Gdn8Utj69mYLryFX6eAu-584">
          <mxGeometry x="202" y="60" width="120" height="30" as="geometry" />
        </mxCell>
        <mxCell id="Gdn8Utj69mYLryFX6eAu-72" value="branch_name" style="text;strokeColor=none;fillColor=none;align=left;verticalAlign=top;spacingLeft=4;spacingRight=4;overflow=hidden;rotatable=0;points=[[0,0.5],[1,0.5]];portConstraint=eastwest;whiteSpace=wrap;html=1;" vertex="1" parent="Gdn8Utj69mYLryFX6eAu-584">
          <mxGeometry x="40" y="121" width="160" height="30" as="geometry" />
        </mxCell>
        <mxCell id="Gdn8Utj69mYLryFX6eAu-73" value="VARCHAR(255)" style="text;strokeColor=none;fillColor=none;align=left;verticalAlign=top;spacingLeft=4;spacingRight=4;overflow=hidden;rotatable=0;points=[[0,0.5],[1,0.5]];portConstraint=eastwest;whiteSpace=wrap;html=1;" vertex="1" parent="Gdn8Utj69mYLryFX6eAu-584">
          <mxGeometry x="202" y="91" width="120" height="30" as="geometry" />
        </mxCell>
        <mxCell id="Gdn8Utj69mYLryFX6eAu-74" value="VARCHAR(255)" style="text;strokeColor=none;fillColor=none;align=left;verticalAlign=top;spacingLeft=4;spacingRight=4;overflow=hidden;rotatable=0;points=[[0,0.5],[1,0.5]];portConstraint=eastwest;whiteSpace=wrap;html=1;" vertex="1" parent="Gdn8Utj69mYLryFX6eAu-584">
          <mxGeometry x="202" y="121" width="120" height="30" as="geometry" />
        </mxCell>
        <mxCell id="Gdn8Utj69mYLryFX6eAu-75" value="tag" style="text;strokeColor=none;fillColor=none;align=left;verticalAlign=top;spacingLeft=4;spacingRight=4;overflow=hidden;rotatable=0;points=[[0,0.5],[1,0.5]];portConstraint=eastwest;whiteSpace=wrap;html=1;" vertex="1" parent="Gdn8Utj69mYLryFX6eAu-584">
          <mxGeometry x="42" y="151" width="160" height="30" as="geometry" />
        </mxCell>
        <mxCell id="Gdn8Utj69mYLryFX6eAu-76" value="preview_image" style="text;strokeColor=none;fillColor=none;align=left;verticalAlign=top;spacingLeft=4;spacingRight=4;overflow=hidden;rotatable=0;points=[[0,0.5],[1,0.5]];portConstraint=eastwest;whiteSpace=wrap;html=1;" vertex="1" parent="Gdn8Utj69mYLryFX6eAu-584">
          <mxGeometry x="42" y="181" width="160" height="30" as="geometry" />
        </mxCell>
        <mxCell id="Gdn8Utj69mYLryFX6eAu-77" value="link" style="text;strokeColor=none;fillColor=none;align=left;verticalAlign=top;spacingLeft=4;spacingRight=4;overflow=hidden;rotatable=0;points=[[0,0.5],[1,0.5]];portConstraint=eastwest;whiteSpace=wrap;html=1;" vertex="1" parent="Gdn8Utj69mYLryFX6eAu-584">
          <mxGeometry x="42" y="211" width="160" height="30" as="geometry" />
        </mxCell>
        <mxCell id="Gdn8Utj69mYLryFX6eAu-78" value="website" style="text;strokeColor=none;fillColor=none;align=left;verticalAlign=top;spacingLeft=4;spacingRight=4;overflow=hidden;rotatable=0;points=[[0,0.5],[1,0.5]];portConstraint=eastwest;whiteSpace=wrap;html=1;" vertex="1" parent="Gdn8Utj69mYLryFX6eAu-584">
          <mxGeometry x="42" y="241" width="160" height="30" as="geometry" />
        </mxCell>
        <mxCell id="Gdn8Utj69mYLryFX6eAu-79" value="phone_number" style="text;strokeColor=none;fillColor=none;align=left;verticalAlign=top;spacingLeft=4;spacingRight=4;overflow=hidden;rotatable=0;points=[[0,0.5],[1,0.5]];portConstraint=eastwest;whiteSpace=wrap;html=1;" vertex="1" parent="Gdn8Utj69mYLryFX6eAu-584">
          <mxGeometry x="42" y="271" width="160" height="30" as="geometry" />
        </mxCell>
        <mxCell id="Gdn8Utj69mYLryFX6eAu-80" value="last_update" style="text;strokeColor=none;fillColor=none;align=left;verticalAlign=top;spacingLeft=4;spacingRight=4;overflow=hidden;rotatable=0;points=[[0,0.5],[1,0.5]];portConstraint=eastwest;whiteSpace=wrap;html=1;" vertex="1" parent="Gdn8Utj69mYLryFX6eAu-584">
          <mxGeometry x="42" y="301" width="160" height="30" as="geometry" />
        </mxCell>
        <mxCell id="Gdn8Utj69mYLryFX6eAu-81" value="crawler_state" style="text;strokeColor=none;fillColor=none;align=left;verticalAlign=top;spacingLeft=4;spacingRight=4;overflow=hidden;rotatable=0;points=[[0,0.5],[1,0.5]];portConstraint=eastwest;whiteSpace=wrap;html=1;" vertex="1" parent="Gdn8Utj69mYLryFX6eAu-584">
          <mxGeometry x="42" y="331" width="160" height="30" as="geometry" />
        </mxCell>
        <mxCell id="Gdn8Utj69mYLryFX6eAu-82" value="crawler_description" style="text;strokeColor=none;fillColor=none;align=left;verticalAlign=top;spacingLeft=4;spacingRight=4;overflow=hidden;rotatable=0;points=[[0,0.5],[1,0.5]];portConstraint=eastwest;whiteSpace=wrap;html=1;" vertex="1" parent="Gdn8Utj69mYLryFX6eAu-584">
          <mxGeometry x="42" y="361" width="160" height="30" as="geometry" />
        </mxCell>
        <mxCell id="Gdn8Utj69mYLryFX6eAu-83" value="crawler_time" style="text;strokeColor=none;fillColor=none;align=left;verticalAlign=top;spacingLeft=4;spacingRight=4;overflow=hidden;rotatable=0;points=[[0,0.5],[1,0.5]];portConstraint=eastwest;whiteSpace=wrap;html=1;" vertex="1" parent="Gdn8Utj69mYLryFX6eAu-584">
          <mxGeometry x="42" y="391" width="160" height="30" as="geometry" />
        </mxCell>
        <mxCell id="Gdn8Utj69mYLryFX6eAu-84" value="VARCHAR(20)" style="text;strokeColor=none;fillColor=none;align=left;verticalAlign=top;spacingLeft=4;spacingRight=4;overflow=hidden;rotatable=0;points=[[0,0.5],[1,0.5]];portConstraint=eastwest;whiteSpace=wrap;html=1;" vertex="1" parent="Gdn8Utj69mYLryFX6eAu-584">
          <mxGeometry x="202" y="151" width="120" height="30" as="geometry" />
        </mxCell>
        <mxCell id="Gdn8Utj69mYLryFX6eAu-85" value="VARCHAR(255)" style="text;strokeColor=none;fillColor=none;align=left;verticalAlign=top;spacingLeft=4;spacingRight=4;overflow=hidden;rotatable=0;points=[[0,0.5],[1,0.5]];portConstraint=eastwest;whiteSpace=wrap;html=1;" vertex="1" parent="Gdn8Utj69mYLryFX6eAu-584">
          <mxGeometry x="202" y="181" width="120" height="30" as="geometry" />
        </mxCell>
        <mxCell id="Gdn8Utj69mYLryFX6eAu-86" value="VARCHAR(2000)" style="text;strokeColor=none;fillColor=none;align=left;verticalAlign=top;spacingLeft=4;spacingRight=4;overflow=hidden;rotatable=0;points=[[0,0.5],[1,0.5]];portConstraint=eastwest;whiteSpace=wrap;html=1;" vertex="1" parent="Gdn8Utj69mYLryFX6eAu-584">
          <mxGeometry x="202" y="211" width="120" height="30" as="geometry" />
        </mxCell>
        <mxCell id="Gdn8Utj69mYLryFX6eAu-87" value="VARCHAR(2000)" style="text;strokeColor=none;fillColor=none;align=left;verticalAlign=top;spacingLeft=4;spacingRight=4;overflow=hidden;rotatable=0;points=[[0,0.5],[1,0.5]];portConstraint=eastwest;whiteSpace=wrap;html=1;" vertex="1" parent="Gdn8Utj69mYLryFX6eAu-584">
          <mxGeometry x="202" y="241" width="120" height="30" as="geometry" />
        </mxCell>
        <mxCell id="Gdn8Utj69mYLryFX6eAu-88" value="VARCHAR(30)" style="text;strokeColor=none;fillColor=none;align=left;verticalAlign=top;spacingLeft=4;spacingRight=4;overflow=hidden;rotatable=0;points=[[0,0.5],[1,0.5]];portConstraint=eastwest;whiteSpace=wrap;html=1;" vertex="1" parent="Gdn8Utj69mYLryFX6eAu-584">
          <mxGeometry x="202" y="270" width="120" height="30" as="geometry" />
        </mxCell>
        <mxCell id="Gdn8Utj69mYLryFX6eAu-89" value="VARCHAR(20)" style="text;strokeColor=none;fillColor=none;align=left;verticalAlign=top;spacingLeft=4;spacingRight=4;overflow=hidden;rotatable=0;points=[[0,0.5],[1,0.5]];portConstraint=eastwest;whiteSpace=wrap;html=1;" vertex="1" parent="Gdn8Utj69mYLryFX6eAu-584">
          <mxGeometry x="202" y="300" width="120" height="30" as="geometry" />
        </mxCell>
        <mxCell id="Gdn8Utj69mYLryFX6eAu-90" value="VARCHAR(10)" style="text;strokeColor=none;fillColor=none;align=left;verticalAlign=top;spacingLeft=4;spacingRight=4;overflow=hidden;rotatable=0;points=[[0,0.5],[1,0.5]];portConstraint=eastwest;whiteSpace=wrap;html=1;" vertex="1" parent="Gdn8Utj69mYLryFX6eAu-584">
          <mxGeometry x="202" y="331" width="120" height="30" as="geometry" />
        </mxCell>
        <mxCell id="Gdn8Utj69mYLryFX6eAu-91" value="VARCHAR(100)" style="text;strokeColor=none;fillColor=none;align=left;verticalAlign=top;spacingLeft=4;spacingRight=4;overflow=hidden;rotatable=0;points=[[0,0.5],[1,0.5]];portConstraint=eastwest;whiteSpace=wrap;html=1;" vertex="1" parent="Gdn8Utj69mYLryFX6eAu-584">
          <mxGeometry x="202" y="361" width="120" height="30" as="geometry" />
        </mxCell>
        <mxCell id="Gdn8Utj69mYLryFX6eAu-92" value="TIMESTAMP" style="text;strokeColor=none;fillColor=none;align=left;verticalAlign=top;spacingLeft=4;spacingRight=4;overflow=hidden;rotatable=0;points=[[0,0.5],[1,0.5]];portConstraint=eastwest;whiteSpace=wrap;html=1;" vertex="1" parent="Gdn8Utj69mYLryFX6eAu-584">
          <mxGeometry x="202" y="390" width="120" height="30" as="geometry" />
        </mxCell>
        <mxCell id="Gdn8Utj69mYLryFX6eAu-94" value="FK" style="text;html=1;align=center;verticalAlign=middle;resizable=0;points=[];autosize=1;strokeColor=none;fillColor=none;" vertex="1" parent="Gdn8Utj69mYLryFX6eAu-584">
          <mxGeometry y="151" width="40" height="30" as="geometry" />
        </mxCell>
        <mxCell id="Gdn8Utj69mYLryFX6eAu-690" value="PK2" style="text;html=1;align=center;verticalAlign=middle;resizable=0;points=[];autosize=1;strokeColor=none;fillColor=none;" vertex="1" parent="Gdn8Utj69mYLryFX6eAu-584">
          <mxGeometry x="-4" y="60" width="50" height="30" as="geometry" />
        </mxCell>
        <mxCell id="Gdn8Utj69mYLryFX6eAu-585" value="" style="group" connectable="0" vertex="1" parent="WIyWlLk6GJQsqaUBKTNV-1">
          <mxGeometry x="837" y="1030" width="322" height="129.32999999999993" as="geometry" />
        </mxCell>
        <mxCell id="Gdn8Utj69mYLryFX6eAu-174" value="" style="shape=internalStorage;whiteSpace=wrap;html=1;backgroundOutline=1;dx=37;dy=60;movable=1;resizable=1;rotatable=1;deletable=1;editable=1;locked=0;connectable=1;shadow=0;" vertex="1" parent="Gdn8Utj69mYLryFX6eAu-585">
          <mxGeometry x="2" y="30" width="320" height="99.33" as="geometry" />
        </mxCell>
        <mxCell id="Gdn8Utj69mYLryFX6eAu-175" value="&lt;b&gt;&lt;u&gt;user_id&lt;/u&gt;&lt;/b&gt;" style="text;strokeColor=none;fillColor=none;align=left;verticalAlign=top;spacingLeft=4;spacingRight=4;overflow=hidden;rotatable=0;points=[[0,0.5],[1,0.5]];portConstraint=eastwest;whiteSpace=wrap;html=1;" vertex="1" parent="Gdn8Utj69mYLryFX6eAu-585">
          <mxGeometry x="40" y="30" width="140" height="30" as="geometry" />
        </mxCell>
        <mxCell id="Gdn8Utj69mYLryFX6eAu-176" value="create_time" style="text;strokeColor=none;fillColor=none;align=left;verticalAlign=top;spacingLeft=4;spacingRight=4;overflow=hidden;rotatable=0;points=[[0,0.5],[1,0.5]];portConstraint=eastwest;whiteSpace=wrap;html=1;" vertex="1" parent="Gdn8Utj69mYLryFX6eAu-585">
          <mxGeometry x="40" y="91" width="160" height="30" as="geometry" />
        </mxCell>
        <mxCell id="Gdn8Utj69mYLryFX6eAu-177" value="PK" style="text;html=1;align=center;verticalAlign=middle;resizable=0;points=[];autosize=1;strokeColor=none;fillColor=none;" vertex="1" parent="Gdn8Utj69mYLryFX6eAu-585">
          <mxGeometry y="30" width="40" height="30" as="geometry" />
        </mxCell>
        <mxCell id="Gdn8Utj69mYLryFX6eAu-178" value="" style="endArrow=none;html=1;rounded=0;entryX=0.643;entryY=0.008;entryDx=0;entryDy=0;entryPerimeter=0;" edge="1" parent="Gdn8Utj69mYLryFX6eAu-585">
          <mxGeometry width="50" height="50" relative="1" as="geometry">
            <mxPoint x="200" y="129.32999999999993" as="sourcePoint" />
            <mxPoint x="200" y="30" as="targetPoint" />
          </mxGeometry>
        </mxCell>
        <mxCell id="Gdn8Utj69mYLryFX6eAu-179" value="&lt;b&gt;&lt;u&gt;INT(11)&lt;/u&gt;&lt;/b&gt;" style="text;strokeColor=none;fillColor=none;align=left;verticalAlign=top;spacingLeft=4;spacingRight=4;overflow=hidden;rotatable=0;points=[[0,0.5],[1,0.5]];portConstraint=eastwest;whiteSpace=wrap;html=1;" vertex="1" parent="Gdn8Utj69mYLryFX6eAu-585">
          <mxGeometry x="202" y="30" width="120" height="30" as="geometry" />
        </mxCell>
        <mxCell id="Gdn8Utj69mYLryFX6eAu-180" value="" style="swimlane;startSize=0;" vertex="1" parent="Gdn8Utj69mYLryFX6eAu-585">
          <mxGeometry x="2" width="320" height="30" as="geometry" />
        </mxCell>
        <mxCell id="Gdn8Utj69mYLryFX6eAu-181" value="&lt;b&gt;Favorites&lt;/b&gt;" style="text;html=1;align=center;verticalAlign=middle;resizable=0;points=[];autosize=1;strokeColor=none;fillColor=none;" vertex="1" parent="Gdn8Utj69mYLryFX6eAu-180">
          <mxGeometry x="110" width="80" height="30" as="geometry" />
        </mxCell>
        <mxCell id="Gdn8Utj69mYLryFX6eAu-182" value="&lt;u&gt;&lt;b&gt;store_id&lt;/b&gt;&lt;/u&gt;" style="text;strokeColor=none;fillColor=none;align=left;verticalAlign=top;spacingLeft=4;spacingRight=4;overflow=hidden;rotatable=0;points=[[0,0.5],[1,0.5]];portConstraint=eastwest;whiteSpace=wrap;html=1;" vertex="1" parent="Gdn8Utj69mYLryFX6eAu-585">
          <mxGeometry x="40" y="60" width="140" height="30" as="geometry" />
        </mxCell>
        <mxCell id="Gdn8Utj69mYLryFX6eAu-183" value="&lt;u&gt;&lt;b&gt;INT(11)&lt;/b&gt;&lt;/u&gt;" style="text;strokeColor=none;fillColor=none;align=left;verticalAlign=top;spacingLeft=4;spacingRight=4;overflow=hidden;rotatable=0;points=[[0,0.5],[1,0.5]];portConstraint=eastwest;whiteSpace=wrap;html=1;" vertex="1" parent="Gdn8Utj69mYLryFX6eAu-585">
          <mxGeometry x="202" y="60" width="120" height="30" as="geometry" />
        </mxCell>
        <mxCell id="Gdn8Utj69mYLryFX6eAu-185" value="TIMESTRAMP" style="text;strokeColor=none;fillColor=none;align=left;verticalAlign=top;spacingLeft=4;spacingRight=4;overflow=hidden;rotatable=0;points=[[0,0.5],[1,0.5]];portConstraint=eastwest;whiteSpace=wrap;html=1;" vertex="1" parent="Gdn8Utj69mYLryFX6eAu-585">
          <mxGeometry x="202" y="91" width="120" height="30" as="geometry" />
        </mxCell>
        <mxCell id="Gdn8Utj69mYLryFX6eAu-205" value="FK" style="text;html=1;align=center;verticalAlign=middle;resizable=0;points=[];autosize=1;strokeColor=none;fillColor=none;" vertex="1" parent="Gdn8Utj69mYLryFX6eAu-585">
          <mxGeometry y="59.32999999999993" width="40" height="30" as="geometry" />
        </mxCell>
        <mxCell id="Gdn8Utj69mYLryFX6eAu-600" value="" style="edgeStyle=entityRelationEdgeStyle;fontSize=12;html=1;endArrow=ERzeroToMany;startArrow=ERmandOne;rounded=0;fontFamily=Helvetica;fontColor=default;resizable=1;exitX=1;exitY=0.5;exitDx=0;exitDy=0;entryX=0.016;entryY=0.433;entryDx=0;entryDy=0;entryPerimeter=0;" edge="1" parent="WIyWlLk6GJQsqaUBKTNV-1" source="Gdn8Utj69mYLryFX6eAu-345" target="Gdn8Utj69mYLryFX6eAu-177">
          <mxGeometry width="100" height="100" relative="1" as="geometry">
            <mxPoint x="767" y="1210" as="sourcePoint" />
            <mxPoint x="867" y="1110" as="targetPoint" />
          </mxGeometry>
        </mxCell>
        <mxCell id="Gdn8Utj69mYLryFX6eAu-612" value="" style="edgeStyle=entityRelationEdgeStyle;fontSize=12;html=1;endArrow=ERmandOne;startArrow=ERzeroToMany;rounded=0;fontFamily=Helvetica;fontColor=default;resizable=1;entryX=-0.003;entryY=0.033;entryDx=0;entryDy=0;entryPerimeter=0;endFill=0;startFill=0;exitX=1;exitY=0.5;exitDx=0;exitDy=0;" edge="1" parent="WIyWlLk6GJQsqaUBKTNV-1" source="Gdn8Utj69mYLryFX6eAu-183" target="Gdn8Utj69mYLryFX6eAu-55">
          <mxGeometry width="100" height="100" relative="1" as="geometry">
            <mxPoint x="1159" y="1224.5" as="sourcePoint" />
            <mxPoint x="1259" y="1124.5" as="targetPoint" />
          </mxGeometry>
        </mxCell>
        <mxCell id="Gdn8Utj69mYLryFX6eAu-687" value="" style="group" connectable="0" vertex="1" parent="WIyWlLk6GJQsqaUBKTNV-1">
          <mxGeometry x="827" y="740" width="354" height="209.33000000000015" as="geometry" />
        </mxCell>
        <mxCell id="Gdn8Utj69mYLryFX6eAu-230" value="" style="shape=internalStorage;whiteSpace=wrap;html=1;backgroundOutline=1;dx=60;dy=90;movable=1;resizable=1;rotatable=1;deletable=1;editable=1;locked=0;connectable=1;shadow=0;container=0;" vertex="1" parent="Gdn8Utj69mYLryFX6eAu-687">
          <mxGeometry x="5" y="30" width="349" height="179.33" as="geometry" />
        </mxCell>
        <mxCell id="Gdn8Utj69mYLryFX6eAu-231" value="&lt;b&gt;&lt;u&gt;store_id&lt;/u&gt;&lt;/b&gt;" style="text;strokeColor=none;fillColor=none;align=left;verticalAlign=top;spacingLeft=4;spacingRight=4;overflow=hidden;rotatable=0;points=[[0,0.5],[1,0.5]];portConstraint=eastwest;whiteSpace=wrap;html=1;container=0;" vertex="1" parent="Gdn8Utj69mYLryFX6eAu-687">
          <mxGeometry x="70" y="30" width="140" height="30" as="geometry" />
        </mxCell>
        <mxCell id="Gdn8Utj69mYLryFX6eAu-232" value="&lt;u&gt;&lt;b&gt;source&lt;/b&gt;&lt;/u&gt;" style="text;strokeColor=none;fillColor=none;align=left;verticalAlign=top;spacingLeft=4;spacingRight=4;overflow=hidden;rotatable=0;points=[[0,0.5],[1,0.5]];portConstraint=eastwest;whiteSpace=wrap;html=1;container=0;" vertex="1" parent="Gdn8Utj69mYLryFX6eAu-687">
          <mxGeometry x="70" y="89.33000000000015" width="160" height="30" as="geometry" />
        </mxCell>
        <mxCell id="Gdn8Utj69mYLryFX6eAu-233" value="PK1,FK1" style="text;html=1;align=center;verticalAlign=middle;resizable=0;points=[];autosize=1;strokeColor=none;fillColor=none;container=0;" vertex="1" parent="Gdn8Utj69mYLryFX6eAu-687">
          <mxGeometry y="30" width="70" height="30" as="geometry" />
        </mxCell>
        <mxCell id="Gdn8Utj69mYLryFX6eAu-234" value="" style="endArrow=none;html=1;rounded=0;entryX=0.643;entryY=0.008;entryDx=0;entryDy=0;entryPerimeter=0;" edge="1" parent="Gdn8Utj69mYLryFX6eAu-687">
          <mxGeometry width="50" height="50" relative="1" as="geometry">
            <mxPoint x="234" y="209.32999999999993" as="sourcePoint" />
            <mxPoint x="234" y="31" as="targetPoint" />
          </mxGeometry>
        </mxCell>
        <mxCell id="Gdn8Utj69mYLryFX6eAu-235" value="&lt;b&gt;&lt;u&gt;INT(11)&lt;/u&gt;&lt;/b&gt;" style="text;strokeColor=none;fillColor=none;align=left;verticalAlign=top;spacingLeft=4;spacingRight=4;overflow=hidden;rotatable=0;points=[[0,0.5],[1,0.5]];portConstraint=eastwest;whiteSpace=wrap;html=1;container=0;" vertex="1" parent="Gdn8Utj69mYLryFX6eAu-687">
          <mxGeometry x="234" y="30" width="120" height="30" as="geometry" />
        </mxCell>
        <mxCell id="Gdn8Utj69mYLryFX6eAu-236" value="" style="swimlane;startSize=0;container=0;" vertex="1" parent="Gdn8Utj69mYLryFX6eAu-687">
          <mxGeometry x="5" width="349" height="30" as="geometry" />
        </mxCell>
        <mxCell id="Gdn8Utj69mYLryFX6eAu-238" value="&lt;u&gt;&lt;b&gt;word&lt;/b&gt;&lt;/u&gt;" style="text;strokeColor=none;fillColor=none;align=left;verticalAlign=top;spacingLeft=4;spacingRight=4;overflow=hidden;rotatable=0;points=[[0,0.5],[1,0.5]];portConstraint=eastwest;whiteSpace=wrap;html=1;container=0;" vertex="1" parent="Gdn8Utj69mYLryFX6eAu-687">
          <mxGeometry x="70" y="60" width="140" height="30" as="geometry" />
        </mxCell>
        <mxCell id="Gdn8Utj69mYLryFX6eAu-239" value="&lt;u&gt;&lt;b&gt;VARCHAR(50)&lt;/b&gt;&lt;/u&gt;" style="text;strokeColor=none;fillColor=none;align=left;verticalAlign=top;spacingLeft=4;spacingRight=4;overflow=hidden;rotatable=0;points=[[0,0.5],[1,0.5]];portConstraint=eastwest;whiteSpace=wrap;html=1;container=0;" vertex="1" parent="Gdn8Utj69mYLryFX6eAu-687">
          <mxGeometry x="234" y="60" width="120" height="30" as="geometry" />
        </mxCell>
        <mxCell id="Gdn8Utj69mYLryFX6eAu-240" value="&lt;u&gt;&lt;b&gt;ENUM&lt;/b&gt;&lt;/u&gt;" style="text;strokeColor=none;fillColor=none;align=left;verticalAlign=top;spacingLeft=4;spacingRight=4;overflow=hidden;rotatable=0;points=[[0,0.5],[1,0.5]];portConstraint=eastwest;whiteSpace=wrap;html=1;container=0;" vertex="1" parent="Gdn8Utj69mYLryFX6eAu-687">
          <mxGeometry x="234" y="91" width="120" height="30" as="geometry" />
        </mxCell>
        <mxCell id="Gdn8Utj69mYLryFX6eAu-242" value="count" style="text;strokeColor=none;fillColor=none;align=left;verticalAlign=top;spacingLeft=4;spacingRight=4;overflow=hidden;rotatable=0;points=[[0,0.5],[1,0.5]];portConstraint=eastwest;whiteSpace=wrap;html=1;container=0;" vertex="1" parent="Gdn8Utj69mYLryFX6eAu-687">
          <mxGeometry x="70" y="119.33000000000015" width="160" height="30" as="geometry" />
        </mxCell>
        <mxCell id="Gdn8Utj69mYLryFX6eAu-243" value="INT(11)" style="text;strokeColor=none;fillColor=none;align=left;verticalAlign=top;spacingLeft=4;spacingRight=4;overflow=hidden;rotatable=0;points=[[0,0.5],[1,0.5]];portConstraint=eastwest;whiteSpace=wrap;html=1;container=0;" vertex="1" parent="Gdn8Utj69mYLryFX6eAu-687">
          <mxGeometry x="234" y="119.33000000000015" width="120" height="30" as="geometry" />
        </mxCell>
        <mxCell id="Gdn8Utj69mYLryFX6eAu-244" value="image_url" style="text;strokeColor=none;fillColor=none;align=left;verticalAlign=top;spacingLeft=4;spacingRight=4;overflow=hidden;rotatable=0;points=[[0,0.5],[1,0.5]];portConstraint=eastwest;whiteSpace=wrap;html=1;container=0;" vertex="1" parent="Gdn8Utj69mYLryFX6eAu-687">
          <mxGeometry x="70" y="149.33000000000015" width="160" height="30" as="geometry" />
        </mxCell>
        <mxCell id="Gdn8Utj69mYLryFX6eAu-245" value="VARCHAR(2000)" style="text;strokeColor=none;fillColor=none;align=left;verticalAlign=top;spacingLeft=4;spacingRight=4;overflow=hidden;rotatable=0;points=[[0,0.5],[1,0.5]];portConstraint=eastwest;whiteSpace=wrap;html=1;container=0;" vertex="1" parent="Gdn8Utj69mYLryFX6eAu-687">
          <mxGeometry x="234" y="149.33000000000015" width="120" height="30" as="geometry" />
        </mxCell>
        <mxCell id="Gdn8Utj69mYLryFX6eAu-246" value="source_url" style="text;strokeColor=none;fillColor=none;align=left;verticalAlign=top;spacingLeft=4;spacingRight=4;overflow=hidden;rotatable=0;points=[[0,0.5],[1,0.5]];portConstraint=eastwest;whiteSpace=wrap;html=1;container=0;" vertex="1" parent="Gdn8Utj69mYLryFX6eAu-687">
          <mxGeometry x="70" y="179.33000000000015" width="160" height="30" as="geometry" />
        </mxCell>
        <mxCell id="Gdn8Utj69mYLryFX6eAu-247" value="VARCHAR(2000)" style="text;strokeColor=none;fillColor=none;align=left;verticalAlign=top;spacingLeft=4;spacingRight=4;overflow=hidden;rotatable=0;points=[[0,0.5],[1,0.5]];portConstraint=eastwest;whiteSpace=wrap;html=1;container=0;" vertex="1" parent="Gdn8Utj69mYLryFX6eAu-687">
          <mxGeometry x="234" y="179.33000000000015" width="120" height="30" as="geometry" />
        </mxCell>
        <mxCell id="Gdn8Utj69mYLryFX6eAu-683" value="PK2,FK2" style="text;html=1;align=center;verticalAlign=middle;resizable=0;points=[];autosize=1;strokeColor=none;fillColor=none;container=0;" vertex="1" parent="Gdn8Utj69mYLryFX6eAu-687">
          <mxGeometry y="59.32999999999993" width="70" height="30" as="geometry" />
        </mxCell>
        <mxCell id="Gdn8Utj69mYLryFX6eAu-684" value="PK3,FK3" style="text;html=1;align=center;verticalAlign=middle;resizable=0;points=[];autosize=1;strokeColor=none;fillColor=none;container=0;" vertex="1" parent="Gdn8Utj69mYLryFX6eAu-687">
          <mxGeometry y="89.32999999999993" width="70" height="30" as="geometry" />
        </mxCell>
        <mxCell id="Gdn8Utj69mYLryFX6eAu-237" value="&lt;b&gt;Keywords&lt;/b&gt;" style="text;html=1;align=center;verticalAlign=middle;resizable=0;points=[];autosize=1;strokeColor=none;fillColor=none;container=0;" vertex="1" parent="Gdn8Utj69mYLryFX6eAu-687">
          <mxGeometry x="130" width="80" height="30" as="geometry" />
        </mxCell>
        <mxCell id="Gdn8Utj69mYLryFX6eAu-688" value="" style="edgeStyle=orthogonalEdgeStyle;fontSize=12;html=1;endArrow=ERmandOne;startArrow=ERzeroToMany;rounded=0;fontFamily=Helvetica;fontColor=default;resizable=1;endFill=0;startFill=0;exitX=1;exitY=0.5;exitDx=0;exitDy=0;entryX=0.25;entryY=0;entryDx=0;entryDy=0;" edge="1" parent="WIyWlLk6GJQsqaUBKTNV-1" target="Gdn8Utj69mYLryFX6eAu-66">
          <mxGeometry width="100" height="100" relative="1" as="geometry">
            <mxPoint x="1181" y="783.16" as="sourcePoint" />
            <mxPoint x="1329" y="946" as="targetPoint" />
          </mxGeometry>
        </mxCell>
        <mxCell id="Gdn8Utj69mYLryFX6eAu-689" value="" style="edgeStyle=orthogonalEdgeStyle;fontSize=12;html=1;endArrow=ERmandOne;startArrow=ERzeroToMany;rounded=0;fontFamily=Helvetica;fontColor=default;resizable=1;endFill=0;startFill=0;exitX=0.03;exitY=0.478;exitDx=0;exitDy=0;entryX=0.25;entryY=0;entryDx=0;entryDy=0;exitPerimeter=0;" edge="1" parent="WIyWlLk6GJQsqaUBKTNV-1" source="Gdn8Utj69mYLryFX6eAu-479">
          <mxGeometry width="100" height="100" relative="1" as="geometry">
            <mxPoint x="1638.995454545455" y="783.16" as="sourcePoint" />
            <mxPoint x="1490.995454545455" y="960" as="targetPoint" />
          </mxGeometry>
        </mxCell>
        <mxCell id="Gdn8Utj69mYLryFX6eAu-693" value="" style="fontSize=12;html=1;endArrow=ERzeroToMany;startArrow=ERmandOne;rounded=0;fontFamily=Helvetica;fontColor=default;resizable=1;entryX=0.016;entryY=0.508;entryDx=0;entryDy=0;entryPerimeter=0;" edge="1" parent="WIyWlLk6GJQsqaUBKTNV-1">
          <mxGeometry width="100" height="100" relative="1" as="geometry">
            <mxPoint x="1568" y="1010" as="sourcePoint" />
            <mxPoint x="1682.64" y="1010.2400000000002" as="targetPoint" />
          </mxGeometry>
        </mxCell>
        <mxCell id="Gdn8Utj69mYLryFX6eAu-694" value="" style="edgeStyle=entityRelationEdgeStyle;fontSize=12;html=1;endArrow=ERmandOne;startArrow=ERzeroToMany;rounded=0;fontFamily=Helvetica;fontColor=default;resizable=1;entryX=-0.003;entryY=0.033;entryDx=0;entryDy=0;entryPerimeter=0;endFill=0;startFill=0;exitX=1;exitY=0.5;exitDx=0;exitDy=0;" edge="1" parent="WIyWlLk6GJQsqaUBKTNV-1" source="Gdn8Utj69mYLryFX6eAu-566">
          <mxGeometry width="100" height="100" relative="1" as="geometry">
            <mxPoint x="1159" y="1347.5" as="sourcePoint" />
            <mxPoint x="1248" y="1126" as="targetPoint" />
          </mxGeometry>
        </mxCell>
        <mxCell id="Gdn8Utj69mYLryFX6eAu-696" value="" style="group" connectable="0" vertex="1" parent="WIyWlLk6GJQsqaUBKTNV-1">
          <mxGeometry x="1587" y="1570" width="342" height="239.33000000000015" as="geometry" />
        </mxCell>
        <mxCell id="Gdn8Utj69mYLryFX6eAu-297" value="" style="shape=internalStorage;whiteSpace=wrap;html=1;backgroundOutline=1;dx=60;dy=90;movable=1;resizable=1;rotatable=1;deletable=1;editable=1;locked=0;connectable=1;shadow=0;" vertex="1" parent="Gdn8Utj69mYLryFX6eAu-696">
          <mxGeometry y="30" width="340" height="209" as="geometry" />
        </mxCell>
        <mxCell id="Gdn8Utj69mYLryFX6eAu-298" value="&lt;b&gt;&lt;u&gt;store_id&lt;/u&gt;&lt;/b&gt;" style="text;strokeColor=none;fillColor=none;align=left;verticalAlign=top;spacingLeft=4;spacingRight=4;overflow=hidden;rotatable=0;points=[[0,0.5],[1,0.5]];portConstraint=eastwest;whiteSpace=wrap;html=1;" vertex="1" parent="Gdn8Utj69mYLryFX6eAu-696">
          <mxGeometry x="60" y="30" width="160" height="30" as="geometry" />
        </mxCell>
        <mxCell id="Gdn8Utj69mYLryFX6eAu-299" value="&lt;b&gt;&lt;u&gt;id&lt;/u&gt;&lt;/b&gt;" style="text;strokeColor=none;fillColor=none;align=left;verticalAlign=top;spacingLeft=4;spacingRight=4;overflow=hidden;rotatable=0;points=[[0,0.5],[1,0.5]];portConstraint=eastwest;whiteSpace=wrap;html=1;" vertex="1" parent="Gdn8Utj69mYLryFX6eAu-696">
          <mxGeometry x="60" y="89.33000000000015" width="160" height="30" as="geometry" />
        </mxCell>
        <mxCell id="Gdn8Utj69mYLryFX6eAu-300" value="PK1" style="text;html=1;align=left;verticalAlign=middle;resizable=0;points=[];autosize=1;strokeColor=none;fillColor=none;" vertex="1" parent="Gdn8Utj69mYLryFX6eAu-696">
          <mxGeometry x="2" y="30" width="50" height="30" as="geometry" />
        </mxCell>
        <mxCell id="Gdn8Utj69mYLryFX6eAu-302" value="&lt;u&gt;&lt;b&gt;INT(11)&lt;/b&gt;&lt;/u&gt;" style="text;strokeColor=none;fillColor=none;align=left;verticalAlign=top;spacingLeft=4;spacingRight=4;overflow=hidden;rotatable=0;points=[[0,0.5],[1,0.5]];portConstraint=eastwest;whiteSpace=wrap;html=1;" vertex="1" parent="Gdn8Utj69mYLryFX6eAu-696">
          <mxGeometry x="222" y="30" width="120" height="30" as="geometry" />
        </mxCell>
        <mxCell id="Gdn8Utj69mYLryFX6eAu-303" value="" style="swimlane;startSize=0;" vertex="1" parent="Gdn8Utj69mYLryFX6eAu-696">
          <mxGeometry width="340" height="30" as="geometry" />
        </mxCell>
        <mxCell id="Gdn8Utj69mYLryFX6eAu-304" value="&lt;b&gt;marks&lt;/b&gt;" style="text;html=1;align=center;verticalAlign=middle;resizable=0;points=[];autosize=1;strokeColor=none;fillColor=none;" vertex="1" parent="Gdn8Utj69mYLryFX6eAu-303">
          <mxGeometry x="124" y="2" width="53" height="26" as="geometry" />
        </mxCell>
        <mxCell id="Gdn8Utj69mYLryFX6eAu-305" value="&lt;u&gt;&lt;b&gt;comment_id&lt;/b&gt;&lt;/u&gt;" style="text;strokeColor=none;fillColor=none;align=left;verticalAlign=top;spacingLeft=4;spacingRight=4;overflow=hidden;rotatable=0;points=[[0,0.5],[1,0.5]];portConstraint=eastwest;whiteSpace=wrap;html=1;" vertex="1" parent="Gdn8Utj69mYLryFX6eAu-696">
          <mxGeometry x="60" y="60" width="160" height="30" as="geometry" />
        </mxCell>
        <mxCell id="Gdn8Utj69mYLryFX6eAu-306" value="&lt;b&gt;&lt;u&gt;INT(11)&lt;/u&gt;&lt;/b&gt;" style="text;strokeColor=none;fillColor=none;align=left;verticalAlign=top;spacingLeft=4;spacingRight=4;overflow=hidden;rotatable=0;points=[[0,0.5],[1,0.5]];portConstraint=eastwest;whiteSpace=wrap;html=1;" vertex="1" parent="Gdn8Utj69mYLryFX6eAu-696">
          <mxGeometry x="222" y="60" width="120" height="30" as="geometry" />
        </mxCell>
        <mxCell id="Gdn8Utj69mYLryFX6eAu-307" value="&lt;u&gt;&lt;b&gt;INT(11)&lt;/b&gt;&lt;/u&gt;" style="text;strokeColor=none;fillColor=none;align=left;verticalAlign=top;spacingLeft=4;spacingRight=4;overflow=hidden;rotatable=0;points=[[0,0.5],[1,0.5]];portConstraint=eastwest;whiteSpace=wrap;html=1;" vertex="1" parent="Gdn8Utj69mYLryFX6eAu-696">
          <mxGeometry x="222" y="89.32999999999993" width="120" height="30" as="geometry" />
        </mxCell>
        <mxCell id="Gdn8Utj69mYLryFX6eAu-308" value="PK2,FK1" style="text;html=1;align=left;verticalAlign=middle;resizable=0;points=[];autosize=1;strokeColor=none;fillColor=none;" vertex="1" parent="Gdn8Utj69mYLryFX6eAu-696">
          <mxGeometry x="2" y="59" width="70" height="30" as="geometry" />
        </mxCell>
        <mxCell id="Gdn8Utj69mYLryFX6eAu-309" value="object" style="text;strokeColor=none;fillColor=none;align=left;verticalAlign=top;spacingLeft=4;spacingRight=4;overflow=hidden;rotatable=0;points=[[0,0.5],[1,0.5]];portConstraint=eastwest;whiteSpace=wrap;html=1;" vertex="1" parent="Gdn8Utj69mYLryFX6eAu-696">
          <mxGeometry x="60" y="119.33000000000015" width="160" height="30" as="geometry" />
        </mxCell>
        <mxCell id="Gdn8Utj69mYLryFX6eAu-310" value="VARCHAR(255)" style="text;strokeColor=none;fillColor=none;align=left;verticalAlign=top;spacingLeft=4;spacingRight=4;overflow=hidden;rotatable=0;points=[[0,0.5],[1,0.5]];portConstraint=eastwest;whiteSpace=wrap;html=1;" vertex="1" parent="Gdn8Utj69mYLryFX6eAu-696">
          <mxGeometry x="222" y="119.33000000000015" width="120" height="30" as="geometry" />
        </mxCell>
        <mxCell id="Gdn8Utj69mYLryFX6eAu-311" value="adjective" style="text;strokeColor=none;fillColor=none;align=left;verticalAlign=top;spacingLeft=4;spacingRight=4;overflow=hidden;rotatable=0;points=[[0,0.5],[1,0.5]];portConstraint=eastwest;whiteSpace=wrap;html=1;" vertex="1" parent="Gdn8Utj69mYLryFX6eAu-696">
          <mxGeometry x="60" y="149.33000000000015" width="160" height="30" as="geometry" />
        </mxCell>
        <mxCell id="Gdn8Utj69mYLryFX6eAu-312" value="VARCHAR(255)" style="text;strokeColor=none;fillColor=none;align=left;verticalAlign=top;spacingLeft=4;spacingRight=4;overflow=hidden;rotatable=0;points=[[0,0.5],[1,0.5]];portConstraint=eastwest;whiteSpace=wrap;html=1;" vertex="1" parent="Gdn8Utj69mYLryFX6eAu-696">
          <mxGeometry x="222" y="149.33000000000015" width="120" height="30" as="geometry" />
        </mxCell>
        <mxCell id="Gdn8Utj69mYLryFX6eAu-313" value="target" style="text;strokeColor=none;fillColor=none;align=left;verticalAlign=top;spacingLeft=4;spacingRight=4;overflow=hidden;rotatable=0;points=[[0,0.5],[1,0.5]];portConstraint=eastwest;whiteSpace=wrap;html=1;" vertex="1" parent="Gdn8Utj69mYLryFX6eAu-696">
          <mxGeometry x="60" y="179.33000000000015" width="160" height="30" as="geometry" />
        </mxCell>
        <mxCell id="Gdn8Utj69mYLryFX6eAu-314" value="ENUM" style="text;strokeColor=none;fillColor=none;align=left;verticalAlign=top;spacingLeft=4;spacingRight=4;overflow=hidden;rotatable=0;points=[[0,0.5],[1,0.5]];portConstraint=eastwest;whiteSpace=wrap;html=1;" vertex="1" parent="Gdn8Utj69mYLryFX6eAu-696">
          <mxGeometry x="222" y="179.33000000000015" width="120" height="30" as="geometry" />
        </mxCell>
        <mxCell id="Gdn8Utj69mYLryFX6eAu-315" value="PK3" style="text;html=1;align=left;verticalAlign=middle;resizable=0;points=[];autosize=1;strokeColor=none;fillColor=none;" vertex="1" parent="Gdn8Utj69mYLryFX6eAu-696">
          <mxGeometry x="2" y="89" width="50" height="30" as="geometry" />
        </mxCell>
        <mxCell id="Gdn8Utj69mYLryFX6eAu-316" value="state" style="text;strokeColor=none;fillColor=none;align=left;verticalAlign=top;spacingLeft=4;spacingRight=4;overflow=hidden;rotatable=0;points=[[0,0.5],[1,0.5]];portConstraint=eastwest;whiteSpace=wrap;html=1;" vertex="1" parent="Gdn8Utj69mYLryFX6eAu-696">
          <mxGeometry x="60" y="209.33000000000015" width="160" height="30" as="geometry" />
        </mxCell>
        <mxCell id="Gdn8Utj69mYLryFX6eAu-317" value="ENUM" style="text;strokeColor=none;fillColor=none;align=left;verticalAlign=top;spacingLeft=4;spacingRight=4;overflow=hidden;rotatable=0;points=[[0,0.5],[1,0.5]];portConstraint=eastwest;whiteSpace=wrap;html=1;" vertex="1" parent="Gdn8Utj69mYLryFX6eAu-696">
          <mxGeometry x="222" y="209.33000000000015" width="120" height="30" as="geometry" />
        </mxCell>
        <mxCell id="Gdn8Utj69mYLryFX6eAu-301" value="" style="endArrow=none;html=1;rounded=0;entryX=0.643;entryY=0.008;entryDx=0;entryDy=0;entryPerimeter=0;" edge="1" parent="Gdn8Utj69mYLryFX6eAu-696">
          <mxGeometry width="50" height="50" relative="1" as="geometry">
            <mxPoint x="222" y="239" as="sourcePoint" />
            <mxPoint x="222" y="31" as="targetPoint" />
          </mxGeometry>
        </mxCell>
        <mxCell id="Gdn8Utj69mYLryFX6eAu-697" value="" style="edgeStyle=orthogonalEdgeStyle;fontSize=12;html=1;endArrow=ERzeroToMany;endFill=1;startArrow=ERzeroToMany;rounded=0;fontFamily=Helvetica;fontColor=default;resizable=1;entryX=1;entryY=0.5;entryDx=0;entryDy=0;exitX=1;exitY=0.5;exitDx=0;exitDy=0;" edge="1" parent="WIyWlLk6GJQsqaUBKTNV-1" source="Gdn8Utj69mYLryFX6eAu-306">
          <mxGeometry width="100" height="100" relative="1" as="geometry">
            <mxPoint x="2015.9899999999998" y="1657.1" as="sourcePoint" />
            <mxPoint x="2002.94" y="1034" as="targetPoint" />
            <Array as="points">
              <mxPoint x="2067" y="1645" />
              <mxPoint x="2067" y="1034" />
            </Array>
          </mxGeometry>
        </mxCell>
        <mxCell id="Gdn8Utj69mYLryFX6eAu-698" value="" style="fontSize=12;html=1;endArrow=ERzeroToMany;startArrow=ERmandOne;rounded=0;fontFamily=Helvetica;fontColor=default;resizable=1;exitX=0.415;exitY=1.015;exitDx=0;exitDy=0;edgeStyle=orthogonalEdgeStyle;entryX=-0.003;entryY=0.076;entryDx=0;entryDy=0;entryPerimeter=0;exitPerimeter=0;" edge="1" parent="WIyWlLk6GJQsqaUBKTNV-1" source="Gdn8Utj69mYLryFX6eAu-92" target="Gdn8Utj69mYLryFX6eAu-297">
          <mxGeometry width="100" height="100" relative="1" as="geometry">
            <mxPoint x="1387.26" y="1381" as="sourcePoint" />
            <mxPoint x="1387" y="1440" as="targetPoint" />
            <Array as="points">
              <mxPoint x="1499" y="1616" />
            </Array>
          </mxGeometry>
        </mxCell>
        <mxCell id="Gdn8Utj69mYLryFX6eAu-699" value="" style="edgeStyle=orthogonalEdgeStyle;fontSize=12;html=1;endArrow=ERmandOne;startArrow=ERmandOne;rounded=0;fontFamily=Helvetica;fontColor=default;resizable=1;endFill=0;exitX=1;exitY=0.5;exitDx=0;exitDy=0;" edge="1" parent="WIyWlLk6GJQsqaUBKTNV-1" source="Gdn8Utj69mYLryFX6eAu-440">
          <mxGeometry width="100" height="100" relative="1" as="geometry">
            <mxPoint x="1197" y="1481" as="sourcePoint" />
            <mxPoint x="1297" y="1381" as="targetPoint" />
            <Array as="points">
              <mxPoint x="1187" y="1475" />
              <mxPoint x="1187" y="1420" />
              <mxPoint x="1297" y="1420" />
            </Array>
          </mxGeometry>
        </mxCell>
        <mxCell id="Gdn8Utj69mYLryFX6eAu-700" value="" style="fontSize=12;html=1;endArrow=ERmandOne;startArrow=ERmandOne;rounded=0;fontFamily=Helvetica;fontColor=default;resizable=1;endFill=0;exitX=0.38;exitY=0.007;exitDx=0;exitDy=0;entryX=0.459;entryY=0.999;entryDx=0;entryDy=0;entryPerimeter=0;exitPerimeter=0;" edge="1" parent="WIyWlLk6GJQsqaUBKTNV-1">
          <mxGeometry width="100" height="100" relative="1" as="geometry">
            <mxPoint x="1407" y="960.21" as="sourcePoint" />
            <mxPoint x="1406.9999999999998" y="740" as="targetPoint" />
          </mxGeometry>
        </mxCell>
        <mxCell id="Gdn8Utj69mYLryFX6eAu-701" value="" style="fontSize=12;html=1;endArrow=ERmandOne;startArrow=ERmandOne;rounded=0;fontFamily=Helvetica;fontColor=default;resizable=1;endFill=0;entryX=0.577;entryY=1.068;entryDx=0;entryDy=0;entryPerimeter=0;exitX=0.595;exitY=0.069;exitDx=0;exitDy=0;exitPerimeter=0;" edge="1" parent="WIyWlLk6GJQsqaUBKTNV-1">
          <mxGeometry width="100" height="100" relative="1" as="geometry">
            <mxPoint x="1376.3999999999996" y="1669.0700000000002" as="sourcePoint" />
            <mxPoint x="1378.3199999999997" y="1380.04" as="targetPoint" />
          </mxGeometry>
        </mxCell>
      </root>
    </mxGraphModel>
  </diagram>
</mxfile>
